<svg xmlns="http://www.w3.org/2000/svg" xmlns:xlink="http://www.w3.org/1999/xlink" width="499" zoomAndPan="magnify" viewBox="0 0 374.25 225" height="300" preserveAspectRatio="xMidYMid meet" version="1.0"><defs><clipPath id="87adc124a3"><path d="M 0 0.226562 L 373.5 0.226562 L 373.5 224.773438 L 0 224.773438 Z M 0 0.226562 " clip-rule="nonzero"/></clipPath><clipPath id="2e368ae6e0"><path d="M 353 13 L 366.75 13 L 366.75 33 L 353 33 Z M 353 13 " clip-rule="nonzero"/></clipPath><clipPath id="0bf95599a3"><path d="M 341.300781 9.472656 L 364 9.472656 L 364 41 L 341.300781 41 Z M 341.300781 9.472656 " clip-rule="nonzero"/></clipPath></defs><g clip-path="url(#87adc124a3)"><path fill="#ffffff" d="M 0 0.226562 L 373.5 0.226562 L 373.5 224.773438 L 0 224.773438 Z M 0 0.226562 " fill-opacity="1" fill-rule="nonzero"/><path fill="#ffffff" d="M 0 0.226562 L 373.5 0.226562 L 373.5 224.773438 L 0 224.773438 Z M 0 0.226562 " fill-opacity="1" fill-rule="nonzero"/></g><g clip-path="url(#2e368ae6e0)"><path fill="#a56b8a" d="M 353.941406 26.011719 C 353.941406 23.015625 358.402344 16.367188 359.976562 14.117188 C 360.039062 14.027344 360.117188 13.957031 360.214844 13.90625 C 360.308594 13.859375 360.410156 13.832031 360.519531 13.832031 C 360.628906 13.832031 360.730469 13.859375 360.828125 13.90625 C 360.921875 13.957031 361 14.027344 361.0625 14.117188 C 362.636719 16.367188 367.101562 23.015625 367.101562 26.011719 C 367.101562 26.441406 367.058594 26.871094 366.972656 27.292969 C 366.890625 27.71875 366.765625 28.128906 366.597656 28.527344 C 366.433594 28.925781 366.230469 29.304688 365.992188 29.664062 C 365.75 30.023438 365.476562 30.355469 365.171875 30.660156 C 364.867188 30.964844 364.535156 31.238281 364.175781 31.480469 C 363.816406 31.71875 363.4375 31.921875 363.039062 32.085938 C 362.636719 32.253906 362.226562 32.375 361.804688 32.460938 C 361.378906 32.546875 360.953125 32.585938 360.519531 32.585938 C 360.089844 32.585938 359.660156 32.546875 359.238281 32.460938 C 358.8125 32.375 358.402344 32.253906 358.003906 32.085938 C 357.601562 31.921875 357.222656 31.71875 356.863281 31.480469 C 356.507812 31.238281 356.171875 30.964844 355.867188 30.660156 C 355.5625 30.355469 355.289062 30.023438 355.050781 29.664062 C 354.808594 29.304688 354.605469 28.925781 354.441406 28.527344 C 354.277344 28.128906 354.152344 27.71875 354.066406 27.292969 C 353.980469 26.871094 353.941406 26.441406 353.941406 26.011719 Z M 353.941406 26.011719 " fill-opacity="1" fill-rule="nonzero"/></g><g clip-path="url(#0bf95599a3)"><path fill="#d9c0ce" d="M 341.320312 29.925781 C 341.320312 24.90625 348.8125 13.746094 351.457031 9.96875 C 351.558594 9.816406 351.691406 9.703125 351.851562 9.617188 C 352.011719 9.535156 352.183594 9.492188 352.367188 9.492188 C 352.546875 9.492188 352.71875 9.535156 352.878906 9.617188 C 353.039062 9.703125 353.171875 9.816406 353.277344 9.96875 C 355.921875 13.746094 363.410156 24.902344 363.410156 29.925781 C 363.410156 30.648438 363.339844 31.367188 363.199219 32.078125 C 363.054688 32.789062 362.847656 33.480469 362.570312 34.152344 C 362.292969 34.820312 361.953125 35.457031 361.546875 36.0625 C 361.144531 36.664062 360.6875 37.222656 360.175781 37.734375 C 359.664062 38.246094 359.105469 38.707031 358.5 39.109375 C 357.898438 39.511719 357.261719 39.851562 356.59375 40.128906 C 355.921875 40.40625 355.230469 40.617188 354.519531 40.757812 C 353.808594 40.898438 353.089844 40.96875 352.367188 40.96875 C 351.640625 40.96875 350.921875 40.898438 350.210938 40.757812 C 349.5 40.617188 348.808594 40.40625 348.140625 40.128906 C 347.46875 39.851562 346.832031 39.511719 346.230469 39.109375 C 345.625 38.707031 345.070312 38.246094 344.554688 37.734375 C 344.042969 37.222656 343.585938 36.664062 343.183594 36.0625 C 342.78125 35.457031 342.4375 34.820312 342.160156 34.152344 C 341.882812 33.480469 341.675781 32.789062 341.535156 32.078125 C 341.390625 31.367188 341.320312 30.648438 341.320312 29.925781 Z M 341.320312 29.925781 " fill-opacity="1" fill-rule="nonzero"/></g><path fill="#a56b8a" d="M 361.238281 29.925781 C 361.238281 30.507812 361.183594 31.085938 361.070312 31.65625 C 360.957031 32.226562 360.789062 32.785156 360.566406 33.320312 C 360.339844 33.859375 360.070312 34.371094 359.746094 34.855469 C 359.421875 35.339844 359.054688 35.789062 358.640625 36.203125 C 358.230469 36.613281 357.78125 36.980469 357.296875 37.304688 C 356.8125 37.628906 356.300781 37.902344 355.761719 38.125 C 355.222656 38.347656 354.667969 38.515625 354.097656 38.632812 C 353.527344 38.746094 352.949219 38.800781 352.367188 38.800781 C 351.78125 38.800781 351.207031 38.746094 350.632812 38.632812 C 350.0625 38.515625 349.507812 38.347656 348.96875 38.125 C 348.429688 37.902344 347.917969 37.628906 347.433594 37.304688 C 346.949219 36.980469 346.503906 36.613281 346.089844 36.203125 C 345.679688 35.789062 345.308594 35.339844 344.988281 34.855469 C 344.664062 34.371094 344.390625 33.859375 344.167969 33.320312 C 343.945312 32.785156 343.777344 32.226562 343.660156 31.65625 C 343.546875 31.085938 343.492188 30.507812 343.492188 29.925781 C 343.492188 29.023438 343.855469 27.707031 344.535156 26.058594 C 344.886719 26.1875 345.25 26.246094 345.625 26.238281 C 347.308594 26.238281 347.308594 25.304688 348.988281 25.304688 C 350.671875 25.304688 350.679688 26.238281 352.359375 26.238281 C 354.042969 26.238281 354.042969 25.304688 355.730469 25.304688 C 357.417969 25.304688 357.414062 26.238281 359.09375 26.238281 C 359.472656 26.246094 359.839844 26.183594 360.191406 26.050781 C 360.875 27.707031 361.238281 29.023438 361.238281 29.925781 Z M 361.238281 29.925781 " fill-opacity="1" fill-rule="nonzero"/><path fill="#ffffff" d="M 356.828125 20.5625 C 356.902344 20.695312 357.011719 20.78125 357.15625 20.820312 C 357.300781 20.859375 357.4375 20.839844 357.570312 20.769531 C 357.699219 20.695312 357.785156 20.585938 357.824219 20.4375 C 357.863281 20.292969 357.847656 20.15625 357.773438 20.027344 C 357.125 18.890625 356.40625 17.691406 355.636719 16.46875 C 355.558594 16.339844 355.445312 16.257812 355.300781 16.226562 C 355.152344 16.191406 355.015625 16.214844 354.890625 16.296875 C 354.761719 16.375 354.683594 16.488281 354.648438 16.632812 C 354.613281 16.78125 354.636719 16.917969 354.71875 17.042969 C 355.480469 18.257812 356.1875 19.441406 356.828125 20.5625 Z M 356.828125 20.5625 " fill-opacity="1" fill-rule="nonzero"/><path fill="#ffffff" d="M 349.476562 35.398438 L 355.988281 29.429688 C 356.101562 29.328125 356.160156 29.203125 356.164062 29.054688 C 356.171875 28.902344 356.125 28.773438 356.023438 28.664062 C 355.921875 28.550781 355.796875 28.492188 355.644531 28.488281 C 355.496094 28.480469 355.367188 28.527344 355.253906 28.628906 L 348.742188 34.597656 C 348.632812 34.699219 348.574219 34.828125 348.566406 34.976562 C 348.5625 35.125 348.609375 35.253906 348.710938 35.367188 C 348.8125 35.476562 348.9375 35.535156 349.085938 35.542969 C 349.234375 35.546875 349.367188 35.5 349.476562 35.398438 Z M 349.476562 35.398438 " fill-opacity="1" fill-rule="nonzero"/><path fill="#ffffff" d="M 348.566406 30.113281 C 348.566406 30.332031 348.609375 30.539062 348.691406 30.738281 C 348.773438 30.9375 348.890625 31.113281 349.042969 31.265625 C 349.195312 31.417969 349.371094 31.535156 349.570312 31.621094 C 349.769531 31.703125 349.980469 31.742188 350.195312 31.742188 C 350.410156 31.742188 350.617188 31.703125 350.816406 31.621094 C 351.015625 31.535156 351.195312 31.417969 351.347656 31.265625 C 351.5 31.113281 351.617188 30.9375 351.699219 30.738281 C 351.78125 30.539062 351.824219 30.332031 351.824219 30.113281 C 351.824219 29.898438 351.78125 29.691406 351.699219 29.492188 C 351.617188 29.292969 351.5 29.117188 351.347656 28.964844 C 351.195312 28.8125 351.015625 28.695312 350.816406 28.609375 C 350.617188 28.527344 350.410156 28.488281 350.195312 28.488281 C 349.980469 28.488281 349.769531 28.527344 349.570312 28.609375 C 349.371094 28.695312 349.195312 28.8125 349.042969 28.964844 C 348.890625 29.117188 348.773438 29.292969 348.691406 29.492188 C 348.609375 29.691406 348.566406 29.898438 348.566406 30.113281 Z M 350.195312 29.574219 C 350.34375 29.574219 350.472656 29.625 350.578125 29.730469 C 350.683594 29.835938 350.738281 29.964844 350.738281 30.113281 C 350.738281 30.265625 350.683594 30.394531 350.578125 30.5 C 350.472656 30.605469 350.34375 30.65625 350.195312 30.65625 C 350.042969 30.65625 349.917969 30.605469 349.8125 30.5 C 349.703125 30.394531 349.652344 30.265625 349.652344 30.113281 C 349.652344 29.964844 349.703125 29.835938 349.8125 29.730469 C 349.917969 29.625 350.042969 29.574219 350.195312 29.574219 Z M 350.195312 29.574219 " fill-opacity="1" fill-rule="nonzero"/><path fill="#ffffff" d="M 356.164062 33.914062 C 356.164062 33.699219 356.125 33.492188 356.039062 33.292969 C 355.957031 33.089844 355.839844 32.914062 355.6875 32.761719 C 355.535156 32.609375 355.359375 32.492188 355.160156 32.410156 C 354.960938 32.328125 354.753906 32.285156 354.535156 32.285156 C 354.320312 32.285156 354.113281 32.328125 353.914062 32.410156 C 353.714844 32.492188 353.539062 32.609375 353.386719 32.761719 C 353.234375 32.914062 353.113281 33.089844 353.03125 33.292969 C 352.949219 33.492188 352.910156 33.699219 352.910156 33.914062 C 352.910156 34.128906 352.949219 34.335938 353.03125 34.539062 C 353.113281 34.738281 353.234375 34.914062 353.386719 35.066406 C 353.539062 35.21875 353.714844 35.335938 353.914062 35.417969 C 354.113281 35.5 354.320312 35.542969 354.535156 35.542969 C 354.753906 35.542969 354.960938 35.5 355.160156 35.417969 C 355.359375 35.335938 355.535156 35.21875 355.6875 35.066406 C 355.839844 34.914062 355.957031 34.738281 356.039062 34.539062 C 356.125 34.335938 356.164062 34.128906 356.164062 33.914062 Z M 354.535156 34.457031 C 354.386719 34.457031 354.257812 34.402344 354.152344 34.296875 C 354.046875 34.191406 353.992188 34.0625 353.992188 33.914062 C 353.992188 33.765625 354.046875 33.636719 354.152344 33.53125 C 354.257812 33.425781 354.386719 33.371094 354.535156 33.371094 C 354.6875 33.371094 354.8125 33.425781 354.921875 33.53125 C 355.027344 33.636719 355.078125 33.765625 355.078125 33.914062 C 355.078125 34.0625 355.027344 34.191406 354.921875 34.296875 C 354.8125 34.402344 354.6875 34.457031 354.535156 34.457031 Z M 354.535156 34.457031 " fill-opacity="1" fill-rule="nonzero"/><path fill="#ffffff" d="M 358.878906 21.972656 C 358.878906 22.125 358.824219 22.25 358.71875 22.359375 C 358.613281 22.464844 358.484375 22.515625 358.335938 22.515625 C 358.1875 22.515625 358.058594 22.464844 357.953125 22.359375 C 357.847656 22.25 357.792969 22.125 357.792969 21.972656 C 357.792969 21.824219 357.847656 21.695312 357.953125 21.589844 C 358.058594 21.484375 358.1875 21.429688 358.335938 21.429688 C 358.484375 21.429688 358.613281 21.484375 358.71875 21.589844 C 358.824219 21.695312 358.878906 21.824219 358.878906 21.972656 Z M 358.878906 21.972656 " fill-opacity="1" fill-rule="nonzero"/></svg>