<svg xmlns="http://www.w3.org/2000/svg" xmlns:xlink="http://www.w3.org/1999/xlink" width="40" zoomAndPan="magnify" viewBox="0 0 30 30.000001" height="40" preserveAspectRatio="xMidYMid meet" version="1.0"><defs><clipPath id="8f668cd291"><path d="M 0.484375 2.191406 L 27 2.191406 L 27 14 L 0.484375 14 Z M 0.484375 2.191406 " clip-rule="nonzero"/></clipPath><clipPath id="38fd0bf72f"><path d="M 0.484375 6 L 2 6 L 2 8 L 0.484375 8 Z M 0.484375 6 " clip-rule="nonzero"/></clipPath><clipPath id="8370dc3efa"><path d="M 0.484375 9 L 2 9 L 2 11 L 0.484375 11 Z M 0.484375 9 " clip-rule="nonzero"/></clipPath><clipPath id="e41fa687b4"><path d="M 13 7 L 29.515625 7 L 29.515625 13 L 13 13 Z M 13 7 " clip-rule="nonzero"/></clipPath><clipPath id="b538e6fea0"><path d="M 7 24 L 19 24 L 19 26.867188 L 7 26.867188 Z M 7 24 " clip-rule="nonzero"/></clipPath><clipPath id="2939b3908b"><path d="M 19 26 L 22 26 L 22 26.867188 L 19 26.867188 Z M 19 26 " clip-rule="nonzero"/></clipPath><clipPath id="b1f3a0fa91"><path d="M 22 25 L 24 25 L 24 26.867188 L 22 26.867188 Z M 22 25 " clip-rule="nonzero"/></clipPath></defs><g clip-path="url(#8f668cd291)"><path fill="#ffffff" d="M 3.230469 13.300781 C 3.359375 13.140625 3.433594 12.957031 3.453125 12.753906 C 3.492188 12.402344 3.371094 12.121094 3.089844 11.90625 C 2.796875 11.703125 2.335938 11.671875 2.113281 11.953125 C 2.039062 12.050781 2 12.164062 2.003906 12.289062 C 2.003906 12.414062 2.046875 12.527344 2.125 12.621094 C 2.25 12.761719 2.394531 12.796875 2.566406 12.722656 C 2.667969 12.679688 2.734375 12.605469 2.769531 12.503906 C 2.796875 12.566406 2.804688 12.632812 2.800781 12.699219 C 2.796875 12.773438 2.769531 12.839844 2.71875 12.894531 C 2.542969 13.085938 2.328125 13.140625 2.078125 13.0625 C 1.914062 13 1.792969 12.886719 1.71875 12.726562 C 1.628906 12.554688 1.605469 12.371094 1.65625 12.183594 C 1.664062 12.164062 1.671875 12.144531 1.679688 12.125 C 1.757812 11.953125 1.875 11.820312 2.03125 11.71875 C 2.1875 11.621094 2.359375 11.574219 2.546875 11.574219 L 6.234375 11.574219 C 6.136719 11.921875 6.113281 12.273438 6.171875 12.628906 C 6.199219 12.8125 6.308594 12.902344 6.492188 12.902344 L 10.757812 12.902344 C 10.847656 12.902344 10.925781 12.871094 10.988281 12.808594 C 11.050781 12.746094 11.085938 12.667969 11.085938 12.578125 C 11.085938 12.488281 11.050781 12.410156 10.988281 12.347656 C 10.925781 12.285156 10.847656 12.253906 10.757812 12.253906 L 6.792969 12.253906 C 6.785156 11.886719 6.886719 11.550781 7.097656 11.25 C 7.308594 10.949219 7.585938 10.738281 7.929688 10.613281 C 8.070312 10.566406 8.214844 10.539062 8.363281 10.53125 C 8.484375 10.523438 8.574219 10.464844 8.632812 10.355469 C 9.109375 9.417969 9.84375 8.78125 10.835938 8.433594 C 11.632812 8.160156 12.433594 8.152344 13.234375 8.417969 C 13.335938 8.453125 13.433594 8.4375 13.519531 8.378906 C 13.609375 8.316406 13.65625 8.230469 13.660156 8.125 C 13.753906 5.953125 15.15625 4.035156 17.148438 3.347656 C 17.777344 3.128906 18.425781 3.042969 19.089844 3.089844 C 19.753906 3.132812 20.382812 3.304688 20.980469 3.605469 C 21.605469 3.921875 22.144531 4.347656 22.597656 4.878906 C 23.054688 5.414062 23.386719 6.015625 23.59375 6.683594 C 23.65625 6.882812 23.710938 7.085938 23.75 7.289062 C 23.769531 7.378906 23.816406 7.449219 23.890625 7.496094 C 23.964844 7.546875 24.046875 7.5625 24.136719 7.542969 C 24.84375 7.402344 25.535156 7.453125 26.210938 7.699219 C 26.292969 7.730469 26.378906 7.726562 26.457031 7.6875 C 26.539062 7.652344 26.59375 7.589844 26.625 7.507812 C 26.65625 7.421875 26.65625 7.339844 26.617188 7.257812 C 26.582031 7.175781 26.519531 7.121094 26.4375 7.089844 C 25.75 6.835938 25.042969 6.753906 24.320312 6.851562 C 24.289062 6.726562 24.253906 6.605469 24.214844 6.484375 C 23.976562 5.734375 23.605469 5.054688 23.09375 4.457031 C 22.582031 3.855469 21.972656 3.378906 21.269531 3.023438 C 20.597656 2.683594 19.886719 2.488281 19.132812 2.4375 C 18.382812 2.386719 17.648438 2.488281 16.9375 2.734375 C 16.152344 3.011719 15.457031 3.4375 14.851562 4.011719 C 14.246094 4.585938 13.785156 5.261719 13.46875 6.03125 L 2.546875 6.03125 C 2.359375 6.035156 2.1875 5.988281 2.03125 5.886719 C 1.871094 5.789062 1.753906 5.652344 1.679688 5.484375 C 1.667969 5.464844 1.664062 5.445312 1.65625 5.425781 C 1.605469 5.234375 1.625 5.054688 1.71875 4.882812 C 1.792969 4.722656 1.914062 4.609375 2.078125 4.542969 C 2.328125 4.46875 2.542969 4.523438 2.71875 4.710938 C 2.765625 4.769531 2.796875 4.835938 2.800781 4.910156 C 2.804688 4.976562 2.796875 5.042969 2.769531 5.105469 C 2.734375 5.003906 2.667969 4.929688 2.570312 4.886719 C 2.398438 4.8125 2.253906 4.84375 2.128906 4.984375 C 2.046875 5.078125 2.007812 5.191406 2.003906 5.316406 C 2 5.441406 2.039062 5.554688 2.113281 5.65625 C 2.335938 5.933594 2.796875 5.90625 3.089844 5.703125 C 3.371094 5.488281 3.492188 5.203125 3.453125 4.855469 C 3.433594 4.648438 3.359375 4.464844 3.230469 4.304688 C 3.0625 4.113281 2.855469 3.980469 2.609375 3.910156 C 2.363281 3.84375 2.121094 3.847656 1.875 3.925781 C 1.535156 4.042969 1.289062 4.265625 1.136719 4.59375 C 0.960938 4.929688 0.929688 5.277344 1.039062 5.636719 C 1.050781 5.671875 1.066406 5.703125 1.078125 5.738281 C 1.207031 6.027344 1.402344 6.257812 1.667969 6.433594 C 1.9375 6.605469 2.230469 6.6875 2.546875 6.683594 L 13.246094 6.683594 C 13.148438 7.011719 13.082031 7.347656 13.042969 7.691406 C 12.433594 7.550781 11.820312 7.539062 11.210938 7.660156 L 5.261719 7.660156 C 5.171875 7.660156 5.09375 7.695312 5.03125 7.757812 C 4.96875 7.820312 4.9375 7.898438 4.9375 7.988281 C 4.9375 8.078125 4.96875 8.152344 5.03125 8.21875 C 5.09375 8.28125 5.171875 8.3125 5.261719 8.3125 L 9.625 8.3125 C 9.230469 8.570312 8.886719 8.878906 8.589844 9.242188 L 5.261719 9.242188 C 5.171875 9.242188 5.09375 9.273438 5.03125 9.335938 C 4.96875 9.398438 4.9375 9.476562 4.9375 9.566406 C 4.9375 9.65625 4.96875 9.734375 5.03125 9.796875 C 5.09375 9.859375 5.171875 9.890625 5.261719 9.890625 L 8.144531 9.890625 C 8.140625 9.894531 8.140625 9.898438 8.140625 9.898438 C 7.996094 9.917969 7.855469 9.953125 7.71875 10 C 7.21875 10.171875 6.824219 10.480469 6.535156 10.925781 L 2.546875 10.925781 C 2.230469 10.917969 1.9375 11.003906 1.671875 11.175781 C 1.402344 11.347656 1.207031 11.578125 1.078125 11.871094 C 1.066406 11.902344 1.050781 11.9375 1.039062 11.972656 C 0.929688 12.332031 0.960938 12.679688 1.136719 13.015625 C 1.289062 13.339844 1.535156 13.5625 1.875 13.679688 C 2.121094 13.757812 2.363281 13.761719 2.609375 13.695312 C 2.855469 13.625 3.0625 13.496094 3.230469 13.300781 Z M 3.230469 13.300781 " fill-opacity="1" fill-rule="nonzero"/></g><path fill="#ffffff" d="M 3.757812 8.3125 L 4.082031 8.3125 C 4.171875 8.3125 4.25 8.28125 4.3125 8.21875 C 4.375 8.15625 4.40625 8.078125 4.40625 7.988281 C 4.40625 7.898438 4.375 7.820312 4.3125 7.757812 C 4.25 7.695312 4.171875 7.664062 4.082031 7.664062 L 3.757812 7.664062 C 3.667969 7.664062 3.589844 7.695312 3.527344 7.757812 C 3.464844 7.820312 3.429688 7.898438 3.429688 7.988281 C 3.429688 8.078125 3.464844 8.15625 3.527344 8.21875 C 3.589844 8.28125 3.667969 8.3125 3.757812 8.3125 Z M 3.757812 8.3125 " fill-opacity="1" fill-rule="nonzero"/><path fill="#ffffff" d="M 2.085938 8.3125 L 2.570312 8.3125 C 2.660156 8.3125 2.734375 8.28125 2.796875 8.21875 C 2.863281 8.152344 2.894531 8.078125 2.894531 7.988281 C 2.894531 7.898438 2.863281 7.820312 2.796875 7.757812 C 2.734375 7.695312 2.660156 7.660156 2.570312 7.660156 L 2.09375 7.660156 C 2.003906 7.660156 1.925781 7.691406 1.863281 7.753906 C 1.796875 7.816406 1.765625 7.894531 1.765625 7.984375 C 1.761719 8.074219 1.792969 8.152344 1.855469 8.214844 C 1.917969 8.277344 1.996094 8.3125 2.085938 8.3125 Z M 2.085938 8.3125 " fill-opacity="1" fill-rule="nonzero"/><g clip-path="url(#38fd0bf72f)"><path fill="#ffffff" d="M 0.792969 7.722656 C 0.847656 7.796875 0.921875 7.835938 1.015625 7.84375 C 1.105469 7.851562 1.1875 7.828125 1.257812 7.769531 C 1.328125 7.707031 1.363281 7.632812 1.371094 7.539062 C 1.375 7.449219 1.347656 7.371094 1.285156 7.300781 C 1.234375 7.242188 1.191406 7.175781 1.160156 7.105469 C 1.125 7.019531 1.0625 6.960938 0.980469 6.929688 C 0.894531 6.894531 0.808594 6.898438 0.726562 6.9375 C 0.640625 6.972656 0.585938 7.035156 0.554688 7.121094 C 0.523438 7.207031 0.527344 7.292969 0.566406 7.375 C 0.625 7.5 0.699219 7.617188 0.792969 7.722656 Z M 0.792969 7.722656 " fill-opacity="1" fill-rule="nonzero"/></g><g clip-path="url(#8370dc3efa)"><path fill="#ffffff" d="M 1.136719 10.507812 C 1.144531 10.488281 1.152344 10.46875 1.160156 10.449219 C 1.183594 10.398438 1.214844 10.347656 1.246094 10.304688 C 1.300781 10.230469 1.324219 10.148438 1.308594 10.0625 C 1.296875 9.972656 1.253906 9.898438 1.179688 9.84375 C 1.109375 9.792969 1.027344 9.773438 0.9375 9.785156 C 0.847656 9.800781 0.777344 9.84375 0.722656 9.917969 C 0.664062 10 0.609375 10.085938 0.566406 10.179688 C 0.554688 10.214844 0.539062 10.246094 0.527344 10.28125 C 0.492188 10.367188 0.492188 10.449219 0.53125 10.535156 C 0.566406 10.617188 0.628906 10.675781 0.714844 10.707031 C 0.800781 10.738281 0.882812 10.734375 0.964844 10.695312 C 1.050781 10.660156 1.105469 10.597656 1.136719 10.507812 Z M 1.136719 10.507812 " fill-opacity="1" fill-rule="nonzero"/></g><path fill="#ffffff" d="M 2.042969 9.894531 C 2.046875 9.894531 2.054688 9.894531 2.058594 9.894531 C 2.082031 9.894531 2.101562 9.894531 2.125 9.894531 L 2.53125 9.894531 C 2.621094 9.894531 2.699219 9.863281 2.761719 9.796875 C 2.824219 9.734375 2.855469 9.65625 2.855469 9.566406 C 2.855469 9.476562 2.824219 9.402344 2.761719 9.335938 C 2.699219 9.273438 2.621094 9.242188 2.53125 9.242188 L 2.125 9.242188 C 2.089844 9.242188 2.058594 9.242188 2.023438 9.246094 C 1.933594 9.246094 1.859375 9.28125 1.796875 9.347656 C 1.734375 9.410156 1.707031 9.488281 1.707031 9.578125 C 1.710938 9.667969 1.742188 9.746094 1.808594 9.804688 C 1.875 9.867188 1.953125 9.898438 2.042969 9.894531 Z M 2.042969 9.894531 " fill-opacity="1" fill-rule="nonzero"/><path fill="#ffffff" d="M 3.757812 9.894531 L 4.082031 9.894531 C 4.171875 9.894531 4.25 9.859375 4.3125 9.796875 C 4.375 9.734375 4.40625 9.65625 4.40625 9.566406 C 4.40625 9.476562 4.375 9.402344 4.3125 9.335938 C 4.25 9.273438 4.171875 9.242188 4.082031 9.242188 L 3.757812 9.242188 C 3.667969 9.242188 3.589844 9.273438 3.527344 9.335938 C 3.464844 9.402344 3.429688 9.476562 3.429688 9.566406 C 3.429688 9.65625 3.464844 9.734375 3.527344 9.796875 C 3.589844 9.859375 3.667969 9.894531 3.757812 9.894531 Z M 3.757812 9.894531 " fill-opacity="1" fill-rule="nonzero"/><g clip-path="url(#e41fa687b4)"><path fill="#ffffff" d="M 29.210938 10.015625 C 28.96875 9.265625 28.566406 8.621094 28.003906 8.074219 C 27.882812 7.957031 27.75 7.941406 27.605469 8.027344 C 27.464844 8.117188 27.417969 8.238281 27.464844 8.398438 C 27.480469 8.457031 27.507812 8.503906 27.550781 8.542969 C 28.035156 9.011719 28.382812 9.570312 28.589844 10.214844 C 28.804688 10.882812 28.847656 11.5625 28.71875 12.253906 L 13.351562 12.253906 C 13.261719 12.253906 13.183594 12.285156 13.121094 12.347656 C 13.058594 12.414062 13.027344 12.488281 13.027344 12.578125 C 13.027344 12.667969 13.058594 12.746094 13.121094 12.808594 C 13.183594 12.871094 13.261719 12.90625 13.351562 12.90625 L 28.980469 12.90625 C 29.148438 12.90625 29.253906 12.824219 29.292969 12.660156 C 29.519531 11.769531 29.492188 10.886719 29.210938 10.015625 Z M 29.210938 10.015625 " fill-opacity="1" fill-rule="nonzero"/></g><path fill="#ffffff" d="M 15.746094 20.628906 C 15.832031 20.617188 15.902344 20.570312 15.953125 20.5 C 16.007812 20.425781 16.023438 20.347656 16.011719 20.257812 C 15.996094 20.171875 15.953125 20.101562 15.882812 20.046875 C 15.8125 19.996094 15.730469 19.976562 15.644531 19.988281 C 15.125 20.070312 14.605469 20.113281 14.082031 20.113281 L 14.070312 20.113281 C 13.980469 20.113281 13.90625 20.144531 13.84375 20.210938 C 13.78125 20.273438 13.753906 20.347656 13.753906 20.4375 C 13.757812 20.527344 13.792969 20.605469 13.859375 20.667969 C 13.921875 20.734375 14 20.765625 14.09375 20.761719 C 14.648438 20.761719 15.199219 20.71875 15.746094 20.628906 Z M 15.746094 20.628906 " fill-opacity="1" fill-rule="nonzero"/><path fill="#ffffff" d="M 17.84375 19.367188 C 17.625 19.457031 17.402344 19.539062 17.179688 19.613281 C 17.09375 19.640625 17.03125 19.695312 16.988281 19.777344 C 16.949219 19.855469 16.945312 19.941406 16.972656 20.023438 C 17 20.109375 17.054688 20.171875 17.132812 20.214844 C 17.214844 20.253906 17.296875 20.261719 17.382812 20.234375 C 17.621094 20.152344 17.859375 20.066406 18.089844 19.972656 C 18.171875 19.9375 18.226562 19.878906 18.261719 19.796875 C 18.292969 19.714844 18.292969 19.632812 18.261719 19.550781 C 18.226562 19.46875 18.167969 19.410156 18.089844 19.375 C 18.007812 19.339844 17.925781 19.339844 17.84375 19.371094 Z M 17.84375 19.367188 " fill-opacity="1" fill-rule="nonzero"/><path fill="#ffffff" d="M 11.648438 20.46875 C 11.894531 20.527344 12.140625 20.582031 12.386719 20.621094 C 12.476562 20.636719 12.558594 20.617188 12.632812 20.566406 C 12.703125 20.511719 12.75 20.441406 12.765625 20.355469 C 12.777344 20.265625 12.761719 20.183594 12.707031 20.113281 C 12.65625 20.039062 12.585938 19.996094 12.496094 19.980469 C 12.265625 19.941406 12.03125 19.894531 11.804688 19.835938 C 11.105469 19.667969 10.433594 19.421875 9.789062 19.105469 C 8.582031 18.453125 7.292969 18.125 5.917969 18.121094 L 5.863281 18.121094 C 4.699219 18.132812 3.585938 18.378906 2.53125 18.867188 C 2.449219 18.902344 2.390625 18.964844 2.359375 19.046875 C 2.328125 19.132812 2.332031 19.214844 2.371094 19.296875 C 2.40625 19.378906 2.46875 19.433594 2.550781 19.464844 C 2.636719 19.496094 2.71875 19.496094 2.800781 19.457031 C 3.871094 18.964844 4.996094 18.738281 6.171875 18.777344 C 7.351562 18.816406 8.457031 19.121094 9.492188 19.683594 C 10.183594 20.027344 10.902344 20.285156 11.648438 20.46875 Z M 11.648438 20.46875 " fill-opacity="1" fill-rule="nonzero"/><path fill="#ffffff" d="M 19.246094 19.429688 C 19.703125 19.585938 20.171875 19.664062 20.652344 19.667969 C 21.238281 19.6875 21.765625 19.527344 22.242188 19.1875 C 23.492188 18.226562 23.816406 16.363281 23.011719 14.757812 C 22.949219 14.632812 22.847656 14.574219 22.707031 14.578125 C 20.914062 14.648438 19.40625 15.65625 18.960938 17.085938 C 18.785156 17.671875 18.773438 18.261719 18.933594 18.855469 C 18.777344 18.9375 18.675781 18.976562 18.671875 18.980469 C 18.589844 19.011719 18.527344 19.070312 18.492188 19.152344 C 18.457031 19.234375 18.453125 19.316406 18.488281 19.402344 C 18.519531 19.484375 18.578125 19.546875 18.660156 19.582031 C 18.742188 19.617188 18.824219 19.621094 18.90625 19.585938 C 19.023438 19.539062 19.132812 19.488281 19.242188 19.429688 C 19.246094 19.429688 19.246094 19.429688 19.246094 19.429688 Z M 19.582031 17.277344 C 19.929688 16.167969 21.09375 15.367188 22.519531 15.242188 C 23.058594 16.507812 22.785156 17.949219 21.847656 18.671875 C 21.300781 19.089844 20.523438 19.050781 20.007812 18.957031 C 20.84375 18.359375 21.511719 17.609375 22.007812 16.714844 C 22.054688 16.636719 22.0625 16.554688 22.039062 16.464844 C 22.011719 16.378906 21.960938 16.316406 21.882812 16.269531 C 21.804688 16.226562 21.722656 16.21875 21.636719 16.242188 C 21.550781 16.265625 21.484375 16.320312 21.441406 16.398438 C 20.964844 17.246094 20.324219 17.945312 19.523438 18.496094 C 19.441406 18.085938 19.460938 17.679688 19.582031 17.277344 Z M 19.582031 17.277344 " fill-opacity="1" fill-rule="nonzero"/><g clip-path="url(#b538e6fea0)"><path fill="#ffffff" d="M 17.753906 26.019531 C 17.523438 25.980469 17.289062 25.929688 17.0625 25.875 C 16.363281 25.707031 15.691406 25.460938 15.050781 25.144531 C 13.839844 24.492188 12.550781 24.164062 11.175781 24.160156 L 11.121094 24.160156 C 9.957031 24.171875 8.84375 24.417969 7.785156 24.902344 C 7.707031 24.941406 7.648438 25 7.617188 25.085938 C 7.585938 25.171875 7.589844 25.253906 7.628906 25.335938 C 7.664062 25.417969 7.726562 25.472656 7.808594 25.503906 C 7.894531 25.535156 7.976562 25.53125 8.058594 25.496094 C 9.03125 25.046875 10.054688 24.820312 11.125 24.8125 C 12.410156 24.808594 13.621094 25.113281 14.75 25.722656 C 15.441406 26.0625 16.160156 26.324219 16.90625 26.507812 C 17.152344 26.566406 17.402344 26.617188 17.648438 26.660156 C 17.664062 26.664062 17.683594 26.664062 17.703125 26.664062 C 17.785156 26.664062 17.859375 26.636719 17.921875 26.578125 C 17.984375 26.523438 18.019531 26.449219 18.027344 26.367188 C 18.035156 26.28125 18.011719 26.207031 17.957031 26.136719 C 17.90625 26.070312 17.839844 26.03125 17.753906 26.019531 Z M 17.753906 26.019531 " fill-opacity="1" fill-rule="nonzero"/></g><g clip-path="url(#2939b3908b)"><path fill="#ffffff" d="M 20.898438 26.027344 C 20.382812 26.109375 19.863281 26.148438 19.339844 26.148438 L 19.328125 26.148438 C 19.238281 26.152344 19.164062 26.183594 19.101562 26.246094 C 19.039062 26.3125 19.011719 26.386719 19.011719 26.476562 C 19.015625 26.566406 19.050781 26.644531 19.117188 26.707031 C 19.183594 26.769531 19.261719 26.800781 19.351562 26.800781 C 19.90625 26.800781 20.457031 26.757812 21.003906 26.667969 C 21.089844 26.652344 21.160156 26.609375 21.214844 26.535156 C 21.265625 26.464844 21.285156 26.382812 21.269531 26.296875 C 21.253906 26.207031 21.210938 26.136719 21.140625 26.085938 C 21.070312 26.03125 20.988281 26.011719 20.898438 26.027344 Z M 20.898438 26.027344 " fill-opacity="1" fill-rule="nonzero"/></g><g clip-path="url(#b1f3a0fa91)"><path fill="#ffffff" d="M 23.101562 25.40625 C 22.878906 25.5 22.660156 25.578125 22.4375 25.652344 C 22.261719 25.710938 22.1875 25.832031 22.214844 26.011719 C 22.246094 26.195312 22.351562 26.289062 22.539062 26.289062 C 22.574219 26.289062 22.605469 26.28125 22.640625 26.269531 C 22.878906 26.191406 23.113281 26.105469 23.347656 26.011719 C 23.433594 25.976562 23.496094 25.917969 23.53125 25.835938 C 23.570312 25.75 23.570312 25.667969 23.535156 25.582031 C 23.5 25.496094 23.441406 25.4375 23.355469 25.402344 C 23.269531 25.367188 23.183594 25.371094 23.101562 25.40625 Z M 23.101562 25.40625 " fill-opacity="1" fill-rule="nonzero"/></g><path fill="#ffffff" d="M 27.964844 20.617188 C 26.171875 20.6875 24.664062 21.691406 24.21875 23.121094 C 24.039062 23.710938 24.03125 24.300781 24.191406 24.894531 C 24.03125 24.976562 23.933594 25.015625 23.929688 25.019531 C 23.84375 25.050781 23.78125 25.105469 23.746094 25.191406 C 23.707031 25.273438 23.703125 25.355469 23.738281 25.441406 C 23.769531 25.527344 23.828125 25.585938 23.914062 25.625 C 23.996094 25.660156 24.082031 25.660156 24.164062 25.625 C 24.183594 25.617188 24.308594 25.566406 24.5 25.46875 L 24.503906 25.46875 C 24.960938 25.625 25.429688 25.703125 25.910156 25.707031 C 26.496094 25.726562 27.023438 25.566406 27.5 25.226562 C 28.75 24.265625 29.074219 22.402344 28.269531 20.796875 C 28.207031 20.671875 28.105469 20.613281 27.964844 20.617188 Z M 27.101562 24.710938 C 26.554688 25.128906 25.78125 25.089844 25.265625 24.996094 C 26.101562 24.394531 26.765625 23.648438 27.265625 22.753906 C 27.308594 22.675781 27.320312 22.589844 27.292969 22.503906 C 27.269531 22.417969 27.21875 22.351562 27.140625 22.308594 C 27.0625 22.265625 26.976562 22.257812 26.890625 22.28125 C 26.804688 22.304688 26.742188 22.355469 26.695312 22.4375 C 26.222656 23.285156 25.582031 23.984375 24.78125 24.535156 C 24.699219 24.125 24.71875 23.71875 24.839844 23.316406 C 25.1875 22.203125 26.351562 21.40625 27.777344 21.28125 C 28.316406 22.542969 28.042969 23.988281 27.101562 24.710938 Z M 27.101562 24.710938 " fill-opacity="1" fill-rule="nonzero"/><path fill="#ffffff" d="M 12.378906 12.578125 C 12.378906 12.667969 12.34375 12.746094 12.28125 12.808594 C 12.21875 12.871094 12.140625 12.90625 12.050781 12.90625 C 11.960938 12.90625 11.886719 12.871094 11.820312 12.808594 C 11.757812 12.746094 11.726562 12.667969 11.726562 12.578125 C 11.726562 12.488281 11.757812 12.414062 11.820312 12.347656 C 11.886719 12.285156 11.960938 12.253906 12.050781 12.253906 C 12.140625 12.253906 12.21875 12.285156 12.28125 12.347656 C 12.34375 12.414062 12.378906 12.488281 12.378906 12.578125 Z M 12.378906 12.578125 " fill-opacity="1" fill-rule="nonzero"/></svg>