<svg xmlns="http://www.w3.org/2000/svg" xmlns:xlink="http://www.w3.org/1999/xlink" width="1920" zoomAndPan="magnify" viewBox="0 0 1440 809.999993" height="1080" preserveAspectRatio="xMidYMid meet" version="1.0"><defs><filter x="0%" y="0%" width="100%" height="100%" id="8b6d405c6c"><feColorMatrix values="0 0 0 0 1 0 0 0 0 1 0 0 0 0 1 0 0 0 1 0" color-interpolation-filters="sRGB"/></filter><g/><mask id="dbb1d4dc48"><g filter="url(#8b6d405c6c)"><rect x="-144" width="1728" fill="#000000" y="-80.999999" height="971.999992" fill-opacity="0.3"/></g></mask><clipPath id="da0ae47334"><path d="M 1317 584 L 1389.816406 584 L 1389.816406 645 L 1317 645 Z M 1317 584 " clip-rule="nonzero"/></clipPath><clipPath id="1d3ae59e3e"><path d="M 0.679688 26 L 485 26 L 485 689.757812 L 0.679688 689.757812 Z M 0.679688 26 " clip-rule="nonzero"/></clipPath><clipPath id="5e8554e4fe"><path d="M 290 2.007812 L 624 2.007812 L 624 101 L 290 101 Z M 290 2.007812 " clip-rule="nonzero"/></clipPath><clipPath id="48d3d7c6e0"><rect x="0" width="1391" y="0" height="691"/></clipPath></defs><rect x="-144" width="1728" fill="#ffffff" y="-80.999999" height="971.999992" fill-opacity="1"/><rect x="-144" width="1728" fill="#ffffff" y="-80.999999" height="971.999992" fill-opacity="1"/><g mask="url(#dbb1d4dc48)"><g transform="matrix(1, 0, 0, 1, 25, 59)"><g clip-path="url(#48d3d7c6e0)"><path fill="#7c3966" d="M 1176.046875 291.335938 C 1180.492188 292.550781 1181.839844 274.105469 1173.492188 276.664062 C 1165.144531 279.21875 1170.796875 289.855469 1176.046875 291.335938 Z M 1176.046875 291.335938 " fill-opacity="1" fill-rule="nonzero"/><path fill="#7c3966" d="M 793.417969 16.953125 C 793.417969 16.953125 790.589844 20.855469 797.320312 20.855469 C 804.1875 20.855469 818.324219 16.277344 829.632812 16.277344 C 840.941406 16.277344 837.578125 12.375 835.289062 12.375 C 833 12.375 826.804688 6.179688 817.785156 6.71875 C 808.765625 7.257812 809.304688 11.296875 803.648438 11.296875 C 797.992188 11.296875 799.070312 9.546875 787.222656 10.21875 C 775.375 10.757812 787.222656 15.875 793.417969 16.953125 Z M 793.417969 16.953125 " fill-opacity="1" fill-rule="nonzero"/><path fill="#7c3966" d="M 1187.492188 345.460938 C 1191.261719 348.019531 1191.933594 352.460938 1191.261719 359.460938 C 1190.589844 366.464844 1184.261719 365.789062 1195.03125 370.234375 C 1205.804688 374.675781 1218.59375 382.351562 1215.363281 368.347656 C 1212.128906 354.347656 1214.6875 352.460938 1203.246094 341.554688 C 1191.800781 330.785156 1191.128906 337.785156 1189.914062 328.765625 C 1188.703125 319.878906 1185.472656 303.320312 1181.03125 309.648438 C 1177.125 315.300781 1174.027344 317.320312 1178.472656 326.882812 C 1183.050781 336.574219 1183.589844 342.902344 1187.492188 345.460938 Z M 1187.492188 345.460938 " fill-opacity="1" fill-rule="nonzero"/><path fill="#7c3966" d="M 1297.625 426.914062 C 1289.277344 418.027344 1275.273438 411.566406 1269.621094 412.238281 C 1263.832031 412.914062 1258.847656 421.796875 1255.617188 418.566406 C 1252.386719 415.335938 1242.828125 400.121094 1237.847656 404.566406 C 1232.730469 409.007812 1238.519531 414.125 1232.058594 414.125 C 1225.730469 414.125 1223.84375 421.796875 1222.496094 411.566406 C 1221.285156 401.335938 1216.167969 396.21875 1214.824219 403.890625 C 1213.613281 411.566406 1212.9375 416.683594 1209.707031 410.894531 C 1206.476562 405.105469 1204.589844 409.007812 1204.589844 403.21875 C 1204.589844 397.429688 1191.800781 391.101562 1186.820312 397.429688 C 1183.589844 401.46875 1182.375 401.871094 1181.03125 410.757812 C 1179.820312 419.644531 1176.585938 433.648438 1183.589844 429.875 C 1190.589844 426.105469 1191.9375 429.203125 1195.03125 424.761719 C 1198.261719 420.316406 1202.035156 417.757812 1207.824219 420.316406 C 1213.613281 422.875 1211.054688 422.875 1221.152344 421.53125 C 1231.382812 420.316406 1236.363281 420.316406 1243.5 424.761719 C 1250.5 429.203125 1264.503906 426.644531 1264.503906 431.089844 C 1264.503906 435.53125 1249.828125 438.761719 1264.503906 443.207031 C 1279.179688 447.648438 1282.277344 457.882812 1286.851562 452.765625 C 1291.296875 447.648438 1297.625 440.648438 1302.203125 445.765625 C 1306.644531 450.878906 1323.878906 464.882812 1320.648438 457.207031 C 1317.414062 449.535156 1318.089844 442.53125 1328.320312 434.320312 C 1338.554688 426.105469 1335.996094 422.203125 1331.550781 422.203125 C 1327.109375 422.203125 1327.109375 427.992188 1316.875 429.203125 C 1306.511719 430.820312 1305.972656 435.800781 1297.625 426.914062 Z M 1297.625 426.914062 " fill-opacity="1" fill-rule="nonzero"/><path fill="#7c3966" d="M 701.59375 29.070312 C 702.269531 29.203125 702.808594 29.339844 703.34375 29.472656 C 709 31.761719 713.039062 28.394531 713.578125 23.816406 C 719.769531 14.796875 717.480469 31.222656 724.347656 28.394531 C 731.082031 25.566406 740.773438 18.703125 748.71875 14.796875 C 756.660156 10.894531 739.023438 12.507812 724.886719 10.21875 C 710.75 7.929688 690.824219 11.96875 685.167969 15.875 C 679.917969 19.507812 693.382812 26.644531 701.59375 29.070312 Z M 701.59375 29.070312 " fill-opacity="1" fill-rule="nonzero"/><path fill="#7c3966" d="M 1163.257812 367.675781 C 1159.355469 372.65625 1151.8125 383.5625 1146.699219 387.464844 C 1141.582031 391.238281 1132.695312 386.253906 1133.371094 395.140625 C 1134.042969 404.027344 1134.582031 407.929688 1135.253906 414.257812 C 1135.925781 420.585938 1137.140625 424.492188 1146.699219 424.492188 C 1156.257812 424.492188 1160.699219 427.722656 1163.929688 426.375 C 1167.164062 425.164062 1166.488281 419.375 1170.257812 411.699219 C 1174.027344 404.027344 1180.492188 405.910156 1177.933594 400.257812 C 1175.375 394.46875 1175.375 395.8125 1175.375 390.023438 C 1175.375 384.234375 1178.605469 388.140625 1176.722656 378.582031 C 1174.703125 369.023438 1167.703125 362.019531 1163.257812 367.675781 Z M 1163.257812 367.675781 " fill-opacity="1" fill-rule="nonzero"/><path fill="#7c3966" d="M 1185.070312 456.128906 C 1194.089844 457.207031 1200.957031 456.128906 1207.148438 452.765625 C 1213.34375 449.398438 1210.515625 445.359375 1209.976562 443.742188 C 1209.4375 441.992188 1204.859375 445.496094 1198.667969 446.570312 C 1192.472656 447.648438 1190.722656 447.648438 1182.78125 448.320312 C 1174.835938 448.859375 1179.953125 445.496094 1171.472656 444.957031 C 1162.988281 444.417969 1154.507812 442.667969 1144.8125 439.300781 C 1135.121094 435.933594 1130.136719 433.109375 1123.273438 430.820312 C 1116.40625 428.53125 1122.734375 424.625 1122.195312 414.933594 C 1121.65625 405.238281 1115.328125 409.277344 1110.347656 405.910156 C 1105.230469 402.546875 1106.980469 395.140625 1109.269531 397.429688 C 1111.558594 399.71875 1112.097656 402.546875 1112.097656 390.5625 C 1112.097656 378.714844 1101.328125 370.773438 1094.59375 360.539062 C 1087.726562 350.308594 1088.941406 344.652344 1089.476562 339.535156 C 1090.015625 334.421875 1102 344.113281 1108.191406 351.382812 C 1114.386719 358.789062 1114.386719 358.789062 1117.886719 357.039062 C 1121.253906 355.289062 1131.484375 349.632812 1133.773438 340.613281 C 1136.0625 331.59375 1115.597656 313.417969 1112.769531 304.933594 C 1109.941406 296.453125 1116.675781 301.570312 1120.175781 295.914062 C 1123.542969 290.261719 1127.582031 298.203125 1125.292969 302.109375 C 1123.003906 306.011719 1125.828125 308.300781 1128.117188 312.339844 C 1130.40625 316.246094 1130.40625 312.339844 1132.695312 307.222656 C 1134.984375 302.109375 1133.234375 300.359375 1137.273438 296.992188 C 1141.3125 293.625 1156.527344 289.046875 1160.566406 285.144531 C 1164.605469 281.238281 1167.433594 276.664062 1172.414062 262.527344 C 1177.53125 248.390625 1171.875 248.925781 1169.585938 243.8125 C 1167.296875 238.695312 1160.566406 230.214844 1156.527344 225.097656 C 1152.621094 219.980469 1155.988281 221.191406 1158.816406 219.441406 C 1161.644531 217.691406 1159.355469 213.789062 1152.621094 211.5 C 1145.757812 209.210938 1146.96875 213.789062 1140.773438 212.574219 C 1134.582031 211.5 1137.945312 206.921875 1144.679688 198.976562 C 1151.546875 191.035156 1148.042969 200.726562 1152.621094 204.09375 C 1157.199219 207.460938 1158.277344 201.265625 1161.644531 203.015625 C 1165.007812 204.765625 1171.875 208.132812 1176.992188 214.863281 C 1182.109375 221.597656 1182.109375 229.539062 1187.222656 229 C 1192.339844 228.464844 1192.339844 226.175781 1194.628906 221.058594 C 1196.917969 215.941406 1188.433594 211.363281 1184.394531 207.460938 C 1180.355469 203.554688 1176.453125 203.554688 1179.820312 200.054688 C 1183.183594 196.6875 1180.355469 191.574219 1182.109375 187.535156 C 1183.859375 183.628906 1190.050781 185.785156 1196.242188 182.957031 C 1202.4375 180.128906 1202.976562 170.433594 1202.976562 160.335938 C 1202.976562 150.105469 1197.859375 145.664062 1195.03125 142.160156 C 1192.203125 138.796875 1198.398438 140.410156 1203.515625 144.449219 C 1208.628906 148.355469 1216.574219 169.898438 1218.191406 178.511719 C 1219.941406 186.996094 1218.726562 186.996094 1225.59375 194.398438 C 1232.460938 201.804688 1230.171875 200.59375 1227.882812 209.074219 C 1225.59375 217.558594 1219.941406 219.847656 1211.457031 222.136719 C 1202.976562 224.425781 1205.804688 226.039062 1200.6875 234.65625 C 1195.570312 243.136719 1203.515625 243.675781 1208.09375 245.964844 C 1212.667969 248.253906 1214.824219 239.773438 1220.613281 235.734375 C 1226.269531 231.828125 1232.460938 228.867188 1242.15625 228.867188 C 1251.847656 228.867188 1239.328125 215.808594 1238.789062 209.074219 C 1238.25 202.34375 1237.710938 197.765625 1235.421875 192.648438 C 1233.132812 187.535156 1237.710938 187.535156 1244.445312 184.167969 C 1251.175781 180.800781 1250.636719 173.9375 1246.730469 173.9375 C 1242.828125 173.9375 1239.328125 176.761719 1230.308594 176.222656 C 1221.285156 175.6875 1223.574219 168.28125 1221.285156 165.453125 C 1218.996094 162.625 1216.171875 156.433594 1215.632812 151.316406 C 1215.09375 146.199219 1207.148438 139.46875 1201.496094 134.351562 C 1195.839844 129.238281 1192.472656 125.871094 1192.472656 128.160156 C 1192.472656 130.449219 1189.109375 127.621094 1181.164062 127.082031 C 1173.222656 126.542969 1171.472656 128.160156 1164.738281 127.621094 C 1157.875 127.082031 1165.277344 115.773438 1168.105469 107.828125 C 1170.933594 99.886719 1178.875 104.464844 1185.070312 104.464844 C 1191.261719 104.464844 1194.089844 105.003906 1203.246094 107.292969 C 1212.265625 109.582031 1208.359375 101.636719 1210.113281 95.445312 C 1211.863281 89.25 1215.765625 92.617188 1220.882812 94.90625 C 1226 97.195312 1227.613281 97.730469 1227.613281 92.617188 C 1227.613281 87.5 1232.191406 86.421875 1236.097656 90.867188 C 1240 95.445312 1229.230469 105.003906 1229.230469 105.003906 C 1229.230469 105.003906 1225.863281 115.234375 1232.058594 118.601562 C 1238.25 121.964844 1250.769531 136.777344 1258.175781 141.894531 C 1265.582031 147.007812 1260.464844 133.410156 1260.464844 123.71875 C 1260.464844 114.023438 1253.734375 115.234375 1248.617188 106.214844 C 1243.5 97.195312 1246.867188 101.097656 1256.558594 101.097656 C 1266.253906 101.097656 1266.792969 97.730469 1269.082031 94.90625 C 1271.371094 92.078125 1272.984375 91.539062 1281.601562 91.539062 C 1290.085938 91.539062 1284.96875 88.171875 1281.0625 83.597656 C 1277.160156 79.019531 1269.214844 80.230469 1272.042969 77.402344 C 1274.871094 74.574219 1290.21875 79.152344 1297.488281 81.980469 C 1304.894531 84.808594 1303.144531 82.519531 1302.066406 75.785156 C 1300.988281 69.054688 1294.664062 74.035156 1276.621094 67.304688 C 1258.445312 60.574219 1238.652344 56.535156 1232.460938 56.535156 C 1226.269531 56.535156 1230.710938 52.628906 1235.289062 52.628906 C 1239.867188 52.628906 1238.652344 48.726562 1234.210938 46.4375 C 1229.632812 44.148438 1225.730469 45.898438 1223.980469 51.015625 C 1222.230469 56.128906 1229.09375 56.667969 1216.035156 56.667969 C 1202.976562 56.667969 1193.417969 56.667969 1178.066406 53.839844 C 1162.71875 51.015625 1157.066406 51.015625 1144.003906 50.476562 C 1130.945312 49.9375 1132.15625 44.28125 1118.558594 44.28125 C 1104.960938 44.28125 1109.539062 39.167969 1103.882812 32.972656 C 1098.230469 26.78125 1095.402344 28.394531 1078.4375 28.394531 C 1061.472656 28.394531 1070.496094 35.128906 1073.859375 36.339844 C 1077.226562 37.414062 1086.382812 40.242188 1092.574219 46.03125 C 1098.769531 51.6875 1081.265625 49.398438 1073.859375 49.9375 C 1066.457031 50.476562 1067.128906 46.03125 1058.511719 40.917969 C 1050.03125 35.800781 1029.027344 38.628906 1017.179688 38.089844 C 1005.332031 37.550781 1004.660156 38.089844 1000.214844 29.605469 C 995.636719 21.125 986.078125 25.703125 973.558594 25.703125 C 961.035156 25.703125 954.304688 19.507812 948.113281 15.46875 C 941.917969 11.566406 932.226562 10.894531 918.625 8.738281 C 905.027344 6.449219 912.433594 17.222656 917.550781 17.757812 C 917.550781 17.757812 923.203125 20.046875 928.859375 20.585938 C 934.511719 21.125 946.496094 21.664062 952.6875 29.070312 C 958.882812 36.472656 933.4375 33.644531 922.128906 39.839844 C 910.816406 46.03125 901.664062 43.207031 893.855469 46.570312 C 885.910156 49.9375 897.757812 55.589844 900.71875 62.996094 C 903.546875 70.402344 900.71875 70.402344 895.605469 72.015625 C 890.488281 73.765625 897.355469 64.074219 895.066406 61.246094 C 892.777344 58.417969 884.292969 43.742188 877.5625 39.167969 C 870.695312 34.589844 871.910156 43.070312 872.984375 49.398438 C 874.0625 55.589844 875.8125 55.589844 877.5625 60.167969 C 879.3125 64.746094 870.15625 60.167969 865.714844 56.804688 C 861.136719 53.4375 846.460938 61.382812 839.597656 57.878906 C 832.863281 54.515625 841.882812 55.589844 841.882812 52.226562 C 841.882812 48.859375 833.941406 51.6875 831.652344 46.570312 C 829.363281 41.453125 845.789062 35.261719 856.019531 33.511719 C 866.253906 31.761719 865.042969 31.761719 865.042969 26.78125 C 865.042969 21.664062 846.867188 23.414062 831.652344 30.683594 C 816.304688 38.089844 820.34375 43.207031 818.054688 48.1875 C 815.765625 53.304688 823.171875 53.839844 826.535156 56.667969 C 829.902344 59.496094 822.632812 60.574219 815.765625 62.863281 C 809.035156 65.152344 807.285156 62.863281 799.339844 65.6875 C 791.398438 68.515625 795.972656 71.882812 789.109375 74.710938 C 782.375 77.539062 782.914062 77.539062 777.261719 79.824219 C 771.605469 82.113281 778.335938 71.34375 786.28125 70.132812 C 794.222656 69.054688 791.933594 64.476562 789.648438 62.726562 C 787.359375 60.976562 772.683594 56.535156 756.796875 51.957031 C 740.910156 47.378906 715.460938 53.707031 706.980469 57.609375 C 698.5 61.515625 699.039062 64.476562 697.960938 70.132812 C 696.882812 75.785156 677.496094 84.269531 667.9375 89.386719 C 658.242188 94.5 666.859375 101.234375 669.6875 105.808594 C 672.515625 110.386719 678.707031 108.097656 686.652344 105.808594 C 694.59375 103.523438 693.382812 113.214844 694.59375 116.582031 C 695.671875 119.945312 700.25 120.484375 707.652344 117.121094 C 715.058594 113.753906 713.308594 105.808594 713.308594 101.234375 C 713.308594 96.65625 711.558594 94.367188 716.675781 88.171875 C 721.789062 81.980469 726.367188 77.941406 730.8125 75.113281 C 735.386719 72.285156 734.714844 77.402344 727.984375 83.058594 C 721.253906 88.710938 725.695312 90.460938 729.0625 97.195312 C 732.425781 104.058594 739.292969 97.195312 747.773438 96.117188 C 756.257812 95.039062 740.371094 103.523438 734.175781 103.523438 C 727.984375 103.523438 734.175781 110.253906 730.273438 110.253906 C 726.367188 110.253906 725.695312 113.082031 725.15625 119.945312 C 724.617188 126.8125 722.328125 125.0625 717.75 126.8125 C 713.175781 128.5625 706.441406 129.101562 699.039062 127.351562 C 691.632812 125.601562 692.304688 118.871094 687.1875 114.292969 C 682.074219 109.714844 680.996094 116.582031 680.996094 119.410156 C 680.996094 122.234375 675.878906 128.429688 673.589844 128.429688 C 671.300781 128.429688 664.570312 135.296875 660.53125 140.949219 C 656.628906 146.605469 653.800781 143.238281 652.589844 140.949219 C 651.511719 138.660156 655.414062 135.296875 653.125 129.640625 C 650.839844 123.984375 641.816406 119.410156 644.644531 106.347656 C 647.472656 93.289062 641.277344 100.15625 632.125 101.234375 C 623.101562 102.308594 620.277344 106.347656 619.601562 109.714844 C 619.0625 113.082031 613.949219 119.945312 608.292969 126.140625 C 602.640625 132.332031 606.542969 137.449219 609.371094 144.316406 C 612.199219 151.183594 619.601562 142.027344 621.890625 136.371094 C 624.179688 130.71875 627.007812 127.890625 630.375 130.71875 C 633.738281 133.546875 625.257812 138.660156 624.179688 145.394531 C 623.101562 152.257812 626.46875 151.585938 634.414062 149.296875 C 642.355469 147.007812 638.316406 145.394531 644.644531 148.21875 C 650.839844 151.046875 638.988281 153.335938 631.585938 153.875 C 624.179688 154.414062 627.007812 159.53125 633.335938 164.105469 C 639.527344 168.683594 636.703125 175.417969 632.796875 175.957031 C 628.890625 176.492188 621.488281 177.707031 610.179688 179.859375 C 598.867188 182.148438 609.101562 191.167969 606.8125 196.285156 C 604.523438 201.402344 603.984375 212.710938 609.101562 213.25 C 614.21875 213.789062 614.21875 222.269531 611.390625 225.097656 C 608.5625 227.925781 608.023438 230.75 601.15625 235.867188 C 594.292969 240.984375 599.40625 245.5625 597.253906 252.292969 C 594.964844 259.023438 589.308594 255.121094 582.578125 262.527344 C 575.847656 269.929688 572.882812 275.585938 567.902344 284.066406 C 562.785156 292.550781 562.25 293.085938 568.441406 303.320312 C 574.632812 313.550781 568.441406 316.378906 563.324219 325.398438 C 558.210938 334.421875 565.074219 335.09375 567.230469 342.902344 C 569.519531 350.847656 574.097656 349.097656 575.710938 357.039062 C 577.460938 364.984375 579.617188 367.269531 587.558594 372.925781 C 595.503906 378.582031 603.445312 386.523438 607.351562 384.773438 C 611.253906 383.023438 617.582031 378.582031 630.644531 379.121094 C 643.703125 379.65625 639.125 373.464844 652.722656 371.175781 C 666.320312 368.886719 658.917969 372.925781 660.667969 376.832031 C 662.417969 380.871094 669.6875 384.773438 679.917969 385.3125 C 690.152344 385.851562 681.667969 398.371094 680.996094 406.316406 C 680.457031 414.257812 680.996094 414.257812 686.113281 420.992188 C 691.226562 427.722656 697.960938 443.070312 699.710938 451.015625 C 701.460938 458.957031 697.960938 467.976562 693.515625 475.382812 C 688.941406 482.789062 690.691406 499.753906 700.25 512.273438 C 709.941406 524.792969 704.152344 524.121094 704.152344 537.179688 C 704.152344 550.242188 711.019531 547.953125 716 555.355469 C 721.117188 562.761719 718.828125 576.359375 723.40625 583.628906 C 727.984375 591.035156 735.925781 584.167969 744.949219 580.800781 C 753.96875 577.4375 758.007812 578.511719 768.777344 570.570312 C 779.550781 562.625 788.03125 546.738281 788.03125 542.296875 C 788.03125 537.71875 791.398438 536.105469 797.050781 533.816406 C 802.707031 531.527344 801.628906 516.851562 800.957031 512.8125 C 800.417969 508.90625 802.03125 505.40625 804.320312 503.117188 C 806.609375 500.828125 820.746094 487.230469 825.863281 481.578125 C 830.980469 475.921875 826.402344 467.976562 825.324219 458.957031 C 824.246094 449.9375 820.746094 446.4375 820.746094 435.664062 C 820.746094 424.894531 817.382812 425.972656 836.09375 408.46875 C 854.808594 390.96875 872.3125 363.097656 874.0625 356.90625 C 875.8125 350.710938 875.140625 345.59375 874.0625 341.019531 C 872.984375 336.441406 848.617188 345.59375 842.960938 345.59375 C 837.308594 345.59375 827.074219 333.074219 825.996094 328.632812 C 824.921875 324.054688 816.304688 319.609375 809.035156 312.746094 C 801.628906 306.011719 807.285156 296.320312 801.628906 288.914062 C 795.972656 281.507812 793.148438 270.738281 791.933594 264.546875 C 790.859375 258.351562 800.417969 269.121094 807.824219 277.605469 C 815.226562 286.085938 824.785156 301.972656 827.613281 307.628906 C 830.441406 313.28125 832.730469 321.765625 833.269531 328.632812 C 833.808594 335.363281 838.382812 336.574219 845.117188 336.035156 C 851.847656 335.496094 875.679688 322.976562 884.160156 319.070312 C 892.640625 315.167969 902.875 303.183594 906.777344 291.875 C 910.683594 280.566406 898.296875 282.183594 892.640625 276.527344 C 886.988281 270.871094 886.988281 276.527344 880.121094 278.277344 C 873.390625 280.027344 867.601562 270.871094 856.828125 260.773438 C 846.058594 250.542969 852.925781 254.042969 855.078125 251.753906 C 857.234375 249.464844 868.140625 256.871094 874.332031 264.277344 C 880.523438 271.679688 881.738281 268.851562 889.007812 268.851562 C 896.414062 268.851562 898.027344 272.21875 907.722656 275.046875 C 917.414062 277.875 922.398438 273.96875 930.742188 274.777344 C 938.957031 275.585938 937.746094 279.625 943.535156 288.644531 C 949.1875 297.664062 946.898438 294.835938 959.421875 296.050781 C 971.941406 297.125 962.785156 296.050781 962.785156 303.992188 C 962.785156 311.9375 963.863281 314.765625 971.269531 324.457031 C 978.675781 334.152344 981.5 352.191406 983.789062 361.347656 C 986.078125 370.367188 990.65625 361.347656 997.925781 361.347656 C 1005.332031 361.347656 998.464844 367.539062 1004.121094 376.695312 C 1009.773438 385.714844 1013.8125 373.867188 1013.8125 370.503906 C 1013.8125 367.136719 1010.449219 358.65625 1007.082031 355.828125 C 1003.714844 353 999.136719 353.539062 1003.042969 349.09375 C 1007.082031 344.519531 1003.582031 340.074219 1003.582031 333.746094 C 1003.582031 327.554688 1004.121094 322.976562 1006.949219 320.148438 C 1009.773438 317.320312 1020.007812 307.089844 1026.199219 299.683594 C 1032.394531 292.28125 1037.507812 291.203125 1045.992188 291.742188 C 1054.472656 292.28125 1047.742188 293.492188 1052.859375 300.222656 C 1057.972656 307.089844 1059.050781 316.648438 1064.707031 323.515625 C 1070.359375 330.382812 1070.898438 322.4375 1075.476562 320.148438 C 1080.054688 317.859375 1077.226562 326.882812 1080.59375 333.746094 C 1083.957031 340.613281 1081.667969 349.632812 1081.667969 355.828125 C 1081.667969 362.019531 1089.074219 368.347656 1093.515625 374.003906 C 1098.09375 379.65625 1096.34375 382.484375 1093.515625 384.773438 C 1090.691406 387.0625 1085.035156 379.121094 1080.457031 374.542969 C 1075.878906 369.964844 1069.148438 372.792969 1073.726562 377.90625 C 1078.304688 383.023438 1081.132812 392.042969 1086.246094 401.738281 C 1091.363281 411.433594 1102.132812 422.742188 1109.539062 432.839844 C 1116.945312 443.070312 1140.640625 447.515625 1149.792969 447.515625 C 1157.871094 447.109375 1176.046875 455.054688 1185.070312 456.128906 Z M 791.800781 236.273438 C 788.433594 243.003906 786.683594 247.582031 781.570312 245.964844 C 776.453125 244.214844 759.488281 244.886719 751.007812 242.0625 C 742.523438 239.234375 730.003906 234.117188 727.714844 240.3125 C 725.425781 246.503906 733.367188 251.621094 719.234375 246.503906 C 705.097656 241.386719 689.746094 235.195312 688.132812 230.617188 C 686.382812 226.039062 693.785156 213.652344 683.554688 213.652344 C 673.320312 213.652344 659.183594 213.113281 654.609375 216.480469 C 650.03125 219.847656 632.527344 226.175781 626.871094 224.425781 C 621.757812 222.941406 613.8125 221.058594 622.96875 217.019531 C 631.988281 213.113281 642.761719 215.269531 643.972656 209.613281 C 645.046875 203.960938 636.027344 202.882812 645.046875 197.765625 C 654.070312 192.648438 650.703125 188.074219 656.894531 185.246094 C 663.089844 182.417969 671.570312 182.957031 676.148438 181.339844 C 680.726562 179.589844 674.398438 177.976562 683.554688 183.089844 C 692.574219 188.207031 698.230469 197.765625 702.808594 198.4375 C 707.382812 198.976562 710.210938 202.34375 707.382812 204.632812 C 704.558594 206.921875 699.980469 208.535156 698.363281 208.535156 C 696.613281 208.535156 695.535156 213.113281 697.285156 213.652344 C 699.039062 214.191406 702.941406 221.597656 705.769531 219.308594 C 708.597656 217.019531 705.769531 213.652344 710.886719 211.902344 C 716 210.152344 721.117188 208 718.828125 204.496094 C 716.539062 201.132812 714.25 197.09375 718.828125 199.382812 C 723.40625 201.671875 727.3125 200.457031 722.195312 195.476562 C 717.078125 190.359375 715.328125 190.359375 709.136719 185.785156 C 702.941406 181.207031 696.074219 178.917969 696.074219 175.550781 C 696.074219 172.183594 692.171875 165.859375 698.363281 168.144531 C 704.558594 170.433594 726.097656 182.28125 726.097656 186.859375 C 726.097656 191.4375 731.753906 199.382812 726.636719 203.285156 C 721.519531 207.191406 731.753906 208.402344 734.042969 210.691406 C 736.332031 212.980469 735.121094 219.171875 741.445312 218.097656 C 747.640625 217.019531 752.21875 217.558594 748.851562 211.230469 C 745.484375 205.035156 739.832031 202.210938 745.484375 199.921875 C 751.140625 197.632812 752.351562 194.804688 753.96875 204.496094 C 755.71875 214.191406 753.429688 217.558594 767.027344 218.097656 C 780.625 218.632812 789.648438 214.730469 791.398438 218.632812 C 792.878906 222.671875 795.167969 229.539062 791.800781 236.273438 Z M 813.878906 193.863281 C 804.859375 193.324219 789.511719 190.496094 782.105469 190.496094 C 774.703125 190.496094 771.875 191.574219 771.875 191.574219 C 765.679688 190.496094 750.871094 194.398438 758.277344 184.707031 C 765.679688 175.011719 761.105469 162.625 770.125 165.992188 C 779.144531 169.359375 779.816406 182.417969 785.472656 174.472656 C 791.128906 166.53125 797.320312 157.511719 799.070312 163.703125 C 800.820312 169.898438 791.128906 175.011719 802.976562 180.128906 C 814.957031 185.378906 822.902344 194.398438 813.878906 193.863281 Z M 868.273438 214.730469 C 859.792969 214.730469 849.558594 212.980469 849.558594 208.535156 L 849.558594 197.765625 C 844.980469 186.996094 839.328125 184.707031 839.328125 177.300781 C 839.328125 169.898438 843.90625 163.703125 852.925781 163.703125 C 861.945312 163.703125 866.523438 162.625 859.65625 170.433594 C 852.925781 178.378906 846.597656 178.917969 855.753906 191.4375 C 864.90625 203.960938 876.753906 214.730469 868.273438 214.730469 Z M 868.273438 214.730469 " fill-opacity="1" fill-rule="nonzero"/><path fill="#7c3966" d="M 1302.066406 509.042969 C 1296.277344 494.367188 1296.277344 482.921875 1293.179688 476.59375 C 1289.949219 470.265625 1292.507812 462.59375 1282.949219 462.59375 C 1279.042969 462.59375 1279.179688 465.152344 1275.949219 473.363281 C 1272.714844 481.578125 1276.621094 496.925781 1268.273438 495.039062 C 1260.0625 493.15625 1256.15625 489.25 1254.273438 481.039062 C 1252.386719 472.824219 1256.828125 465.152344 1250.5 465.152344 C 1244.175781 465.152344 1226.265625 460.707031 1221.824219 467.710938 C 1217.382812 474.710938 1223.035156 477.269531 1213.613281 477.269531 C 1204.054688 477.269531 1200.28125 477.269531 1195.167969 483.597656 C 1190.050781 489.925781 1183.050781 507.832031 1155.71875 509.042969 C 1128.386719 510.253906 1142.390625 524.929688 1142.390625 540.816406 C 1142.390625 556.703125 1127.714844 566.261719 1134.175781 572.050781 C 1140.503906 577.839844 1132.292969 585.378906 1145.621094 580.9375 C 1158.949219 576.496094 1171.066406 575.148438 1192.070312 572.050781 C 1213.074219 568.820312 1222.632812 567.609375 1223.304688 577.839844 C 1223.980469 588.074219 1220.746094 581.070312 1229.09375 582.957031 C 1237.441406 584.839844 1228.421875 598.304688 1237.980469 599.515625 C 1247.539062 600.726562 1241.75 607.730469 1250.097656 607.730469 C 1258.308594 607.730469 1261.542969 616.617188 1254.539062 616.617188 C 1247.539062 616.617188 1237.308594 631.289062 1247.539062 626.175781 C 1257.773438 621.058594 1267.871094 619.847656 1267.871094 612.171875 C 1267.871094 604.5 1266.65625 603.960938 1278.640625 594.402344 C 1290.757812 584.839844 1318.761719 561.953125 1316.875 543.507812 C 1314.855469 525.0625 1307.855469 523.71875 1302.066406 509.042969 Z M 1302.066406 509.042969 " fill-opacity="1" fill-rule="nonzero"/><g clip-path="url(#da0ae47334)"><path fill="#7c3966" d="M 1385.539062 585.515625 C 1380.425781 582.957031 1380.425781 587.398438 1377.328125 596.957031 C 1374.097656 606.519531 1358.210938 610.289062 1355.652344 612.308594 C 1353.09375 614.191406 1347.976562 619.980469 1347.976562 619.980469 C 1335.859375 627.65625 1312.300781 635.328125 1318.089844 641.65625 C 1323.878906 647.984375 1327.648438 644.214844 1341.648438 637.214844 C 1355.652344 630.214844 1359.421875 621.328125 1367.09375 616.210938 C 1374.769531 611.09375 1379.210938 611.769531 1384.867188 605.441406 C 1390.65625 598.84375 1390.65625 588.074219 1385.539062 585.515625 Z M 1385.539062 585.515625 " fill-opacity="1" fill-rule="nonzero"/></g><g clip-path="url(#1d3ae59e3e)"><path fill="#7c3966" d="M 477.292969 426.78125 C 467.0625 423.953125 466.523438 427.320312 465.445312 421.664062 C 464.367188 416.007812 457.503906 416.007812 451.308594 416.007812 C 445.117188 416.007812 442.828125 415.472656 437.710938 410.894531 C 432.59375 406.316406 421.824219 405.777344 418.457031 404.699219 C 415.09375 403.621094 416.707031 393.929688 409.976562 384.910156 C 403.109375 375.886719 388.972656 374.136719 379.953125 369.023438 C 370.933594 363.90625 373.757812 344.113281 360.699219 345.730469 C 347.640625 347.480469 346.5625 352.597656 334.582031 346.269531 C 322.734375 340.074219 314.789062 336.035156 308.460938 340.613281 C 302.269531 345.191406 294.324219 353.671875 290.285156 355.960938 C 286.382812 358.25 279.515625 354.210938 275.609375 354.886719 C 271.707031 355.421875 267.128906 350.847656 264.300781 346.941406 C 261.472656 343.039062 269.417969 323.109375 262.011719 323.109375 C 254.609375 323.109375 245.046875 319.746094 245.046875 316.917969 C 245.046875 314.089844 260.398438 297.125 255.820312 294.300781 C 251.242188 291.472656 242.222656 293.222656 234.277344 303.992188 C 226.335938 314.765625 218.929688 314.226562 215.023438 310.1875 C 211.121094 306.28125 201.964844 282.988281 209.371094 269.929688 C 216.773438 256.871094 228.621094 250.675781 237.644531 251.214844 C 246.664062 251.753906 245.585938 248.925781 254.609375 248.390625 C 263.628906 247.851562 275.070312 250.675781 277.226562 254.042969 C 279.515625 257.410156 274.9375 263.0625 280.59375 269.929688 C 286.246094 276.664062 289.613281 273.835938 290.285156 276.664062 C 290.824219 279.488281 285.707031 282.316406 283.554688 282.316406 C 281.265625 282.316406 262.550781 287.433594 269.957031 290.800781 C 277.359375 294.164062 290.421875 291.335938 293.246094 295.914062 C 296.074219 300.492188 284.226562 310.050781 301.191406 310.589844 C 318.15625 311.128906 329.464844 313.417969 339.160156 313.957031 C 348.851562 314.496094 355.582031 315.03125 356.660156 317.320312 C 357.738281 319.609375 364.605469 308.839844 348.71875 308.839844 C 332.832031 308.839844 320.445312 299.820312 311.828125 298.070312 C 303.34375 296.320312 297.691406 290.664062 297.152344 283.933594 C 296.613281 277.066406 297.691406 272.085938 294.324219 266.429688 C 290.960938 260.773438 282.476562 247.175781 290.421875 241.523438 C 298.363281 235.867188 314.25 225.097656 318.15625 217.691406 C 322.058594 210.289062 322.058594 208.671875 331.214844 203.015625 C 340.234375 197.363281 351.007812 189.957031 356.121094 184.839844 C 361.238281 179.726562 369.71875 171.78125 371.46875 175.820312 C 373.222656 179.726562 381.164062 180.9375 390.722656 177.570312 C 400.417969 174.207031 412.265625 165.722656 402.03125 165.722656 C 391.800781 165.722656 385.605469 162.894531 388.433594 158.992188 C 391.261719 155.085938 381.703125 153.335938 378.742188 153.875 C 375.914062 154.414062 375.914062 148.21875 385.605469 146.46875 C 395.300781 144.71875 387.359375 153.335938 395.300781 152.664062 C 403.246094 152.125 408.359375 145.933594 414.015625 144.71875 C 419.671875 143.644531 421.957031 148.625 414.554688 153.742188 C 407.148438 158.855469 404.859375 157.105469 414.554688 159.394531 C 424.246094 161.683594 427.074219 166.800781 432.730469 161.683594 C 438.382812 156.566406 431.652344 154.816406 430.980469 148.085938 C 430.441406 141.355469 432.054688 128.832031 425.863281 124.253906 C 419.671875 119.679688 419.671875 114.023438 419.671875 109.582031 C 419.671875 105.003906 420.746094 95.445312 414.554688 99.886719 C 408.359375 104.464844 403.246094 107.292969 400.957031 105.003906 C 398.667969 102.714844 402.03125 98.136719 397.050781 94.769531 C 391.933594 91.40625 391.398438 86.289062 385.203125 86.828125 C 379.011719 87.367188 372.683594 82.25 369.316406 89.65625 C 365.949219 97.058594 362.449219 103.253906 361.375 105.542969 C 360.296875 107.828125 365.277344 115.773438 360.835938 119.679688 C 356.257812 123.582031 343.871094 129.371094 342.121094 133.277344 C 340.371094 137.179688 333.636719 147.414062 331.886719 140.679688 C 330.136719 133.949219 337.542969 123.71875 327.308594 120.890625 C 317.078125 118.0625 309.136719 120.351562 307.519531 114.15625 C 305.769531 107.964844 301.324219 102.308594 311.421875 97.195312 C 321.65625 92.078125 331.886719 83.058594 341.445312 81.84375 C 351.140625 80.769531 344.273438 88.710938 352.21875 88.039062 C 360.160156 87.5 351.140625 83.460938 360.699219 81.84375 C 370.394531 80.09375 368.644531 80.09375 365.816406 76.730469 C 362.988281 73.363281 364.738281 72.824219 372.007812 69.324219 C 379.414062 65.957031 373.757812 63.667969 381.03125 60.84375 C 388.433594 58.015625 390.050781 55.1875 394.089844 55.1875 C 397.992188 55.1875 397.457031 56.9375 395.167969 62.054688 C 392.878906 67.171875 391.261719 70.535156 397.992188 67.171875 C 404.859375 63.804688 408.226562 61.515625 403.109375 66.632812 C 397.992188 71.746094 394.628906 71.746094 387.222656 72.824219 C 379.816406 73.902344 382.105469 75.113281 385.472656 79.019531 C 388.839844 82.921875 397.320312 83.597656 400.148438 85.75 C 402.976562 88.039062 406.339844 95.980469 413.207031 91.941406 C 419.9375 88.039062 414.957031 87.367188 423.976562 83.460938 C 433 79.558594 446.058594 77.269531 444.980469 72.152344 C 443.90625 67.035156 434.75 64.207031 433.671875 58.015625 C 432.59375 51.820312 446.191406 48.320312 428.554688 45.492188 C 411.054688 42.667969 421.152344 40.378906 412.667969 40.378906 C 404.1875 40.378906 388.300781 40.378906 382.644531 43.207031 C 376.992188 46.03125 373.625 41.453125 370.796875 46.03125 C 367.96875 50.609375 371.335938 56.804688 368.507812 56.804688 C 365.679688 56.804688 360.566406 61.382812 358.277344 56.804688 C 355.988281 52.226562 350.871094 47.78125 357.738281 46.03125 C 364.46875 44.28125 365.679688 45.492188 366.757812 40.378906 C 367.835938 35.261719 357.066406 35.800781 363.394531 34.722656 C 369.585938 33.644531 372.414062 35.261719 380.894531 35.261719 C 389.378906 35.261719 408.628906 38.628906 411.457031 33.511719 C 414.285156 28.394531 406.878906 28.394531 398.398438 27.855469 C 389.914062 27.320312 375.105469 24.492188 368.914062 27.320312 C 362.71875 30.144531 354.777344 34.722656 351.949219 39.167969 C 349.121094 43.742188 349.121094 38.089844 343.464844 39.167969 C 337.8125 40.242188 328.117188 46.570312 333.234375 49.9375 C 338.351562 53.304688 338.351562 57.34375 332.695312 57.34375 C 327.042969 57.34375 325.292969 62.996094 321.386719 62.996094 C 317.480469 62.996094 306.710938 62.457031 311.691406 59.628906 C 316.808594 56.804688 322.464844 56.804688 321.925781 49.9375 C 321.386719 43.070312 327.578125 40.917969 327.578125 38.628906 C 327.578125 36.339844 313.980469 43.742188 303.210938 40.378906 C 292.441406 37.011719 287.863281 31.894531 277.089844 32.433594 C 266.320312 32.972656 252.183594 47.109375 258.917969 48.320312 C 265.78125 49.398438 270.765625 47.246094 271.976562 50.609375 C 273.054688 53.976562 270.898438 56.804688 274.804688 58.554688 C 278.707031 60.304688 286.113281 64.746094 276.554688 62.457031 C 266.996094 60.167969 271.4375 56.265625 256.761719 55.589844 C 242.085938 55.054688 232.929688 50.476562 217.71875 54.515625 C 202.371094 58.417969 204.660156 61.917969 194.425781 58.417969 C 184.195312 55.054688 162.652344 47.109375 145.6875 50.476562 C 128.722656 53.839844 107.722656 59.496094 102.605469 62.996094 C 97.488281 66.363281 107.722656 69.726562 98.699219 70.402344 C 89.679688 70.941406 68.136719 70.402344 72.582031 76.054688 C 77.160156 81.710938 82.8125 82.25 75.949219 83.460938 C 69.214844 84.539062 60.058594 85.210938 56.695312 90.191406 C 53.328125 95.308594 40.808594 98.136719 48.75 100.425781 C 56.695312 102.714844 69.753906 107.828125 64.097656 108.367188 C 58.445312 108.90625 29.5 120.214844 17.113281 123.042969 C 4.589844 125.871094 -5.507812 139.46875 5.265625 135.429688 C 18.996094 130.449219 55.753906 119.003906 62.484375 116.175781 C 69.214844 113.351562 72.175781 115.640625 71.503906 119.542969 C 70.964844 123.449219 79.449219 117.792969 86.179688 112.675781 C 92.910156 107.5625 92.910156 97.328125 98.699219 100.828125 C 104.355469 104.195312 107.722656 100.828125 112.296875 99.753906 C 116.875 98.675781 121.320312 95.847656 125.359375 98 C 129.261719 100.289062 139.496094 102.578125 142.320312 104.867188 C 145.148438 107.15625 146.226562 112.273438 143.398438 112.8125 C 140.570312 113.351562 140.035156 116.175781 140.570312 120.753906 C 141.109375 125.332031 143.398438 129.238281 137.746094 130.449219 C 132.089844 131.527344 133.167969 138.390625 136.667969 137.855469 C 140.035156 137.316406 142.320312 135.566406 142.859375 132.199219 C 143.398438 128.832031 150.804688 122.503906 149.726562 127.082031 C 148.648438 131.660156 145.824219 136.101562 145.824219 139.605469 C 145.824219 142.96875 141.917969 142.429688 141.246094 145.796875 C 140.707031 149.164062 141.785156 149.164062 144.609375 151.992188 C 147.4375 154.816406 145.6875 156.566406 145.148438 162.761719 C 144.609375 168.953125 127.648438 186.054688 125.359375 191.707031 C 123.070312 197.363281 124.28125 205.304688 124.28125 211.5 C 124.28125 217.691406 121.992188 225.636719 128.1875 227.925781 C 134.378906 230.214844 134.917969 231.289062 134.917969 236.945312 C 134.917969 242.597656 134.917969 249.464844 138.285156 253.371094 C 141.648438 257.273438 140.035156 256.734375 140.035156 263.0625 C 140.035156 269.390625 143.9375 265.890625 144.609375 271.007812 C 145.148438 276.125 141.785156 278.414062 147.4375 282.316406 C 153.09375 286.222656 159.285156 289.046875 156.457031 282.855469 C 153.632812 276.664062 151.882812 271.546875 149.054688 262.390625 C 146.226562 253.371094 144.476562 236.945312 147.976562 241.925781 C 151.34375 247.042969 155.921875 262.390625 161.035156 273.027344 C 166.152344 283.796875 172.347656 282.722656 172.347656 290.53125 C 172.347656 298.472656 166.152344 305.878906 178.539062 310.992188 C 191.058594 316.109375 200.082031 326.882812 207.484375 325.667969 C 214.890625 324.59375 219.332031 320.015625 222.160156 325.128906 C 224.988281 330.246094 231.179688 336.980469 238.046875 336.980469 C 244.78125 336.980469 247.066406 341.554688 248.28125 348.289062 C 249.355469 355.019531 253.933594 356.230469 260.800781 358.519531 C 267.53125 360.808594 269.28125 368.214844 274.398438 367.539062 C 279.515625 367.003906 286.246094 364.714844 286.246094 369.828125 C 286.246094 374.945312 288.535156 387.332031 280.054688 395.277344 C 271.570312 403.21875 267.53125 408.875 272.109375 413.988281 C 276.6875 419.105469 272.648438 424.222656 270.359375 428.125 C 268.070312 432.03125 272.109375 435.53125 276.554688 441.722656 C 281.128906 447.917969 287.324219 455.324219 291.226562 467.84375 C 295.132812 480.363281 300.921875 484.808594 310.480469 488.847656 C 320.175781 492.75 327.445312 499.617188 327.445312 509.3125 C 327.445312 519.003906 326.90625 551.855469 326.90625 561.414062 C 326.90625 571.109375 332.023438 580.667969 330.273438 588.074219 C 328.523438 595.476562 330.273438 601.671875 332.5625 604.5 C 334.851562 607.324219 334.3125 613.519531 334.851562 619.847656 C 335.390625 626.039062 342.253906 621.597656 342.253906 627.25 C 342.253906 632.90625 339.429688 641.386719 342.792969 644.214844 C 346.160156 647.042969 338.890625 657.273438 354.101562 666.835938 C 369.453125 676.527344 370.527344 677.066406 371.605469 678.683594 C 372.683594 680.433594 377.796875 675.316406 377.796875 678.144531 C 377.796875 680.972656 369.316406 689.453125 385.203125 689.453125 C 401.089844 689.453125 410.648438 691.742188 401.089844 684.335938 C 391.398438 676.933594 385.742188 680.433594 384.125 673.027344 C 382.375 665.621094 380.222656 666.835938 379.011719 661.71875 C 377.933594 656.601562 383.050781 654.3125 381.300781 649.195312 C 379.550781 644.082031 372.816406 644.082031 373.355469 638.964844 C 373.894531 633.847656 377.933594 628.734375 379.011719 626.445312 C 380.085938 624.15625 380.085938 621.867188 377.261719 619.710938 C 374.433594 617.421875 374.972656 616.882812 379.011719 615.671875 C 383.050781 614.597656 383.589844 616.210938 385.203125 610.558594 C 386.953125 604.902344 391.933594 605.441406 394.222656 603.824219 C 396.511719 602.074219 404.457031 599.921875 401.628906 592.515625 C 398.800781 585.109375 393.148438 581.746094 399.339844 581.746094 C 405.535156 581.746094 411.863281 581.207031 415.765625 573.261719 C 419.671875 565.320312 418.054688 563.570312 422.632812 557.375 C 427.210938 551.183594 427.75 546.066406 427.75 541.488281 C 427.75 536.910156 425.460938 532.46875 431.652344 529.640625 C 437.847656 526.8125 458.308594 523.449219 461.136719 514.964844 C 463.964844 506.484375 466.792969 497.464844 465.714844 488.308594 C 464.636719 479.289062 463.964844 473.632812 470.292969 466.226562 C 476.484375 458.824219 484.429688 452.628906 484.429688 445.898438 C 484.5625 439.167969 487.527344 429.609375 477.292969 426.78125 Z M 477.292969 426.78125 " fill-opacity="1" fill-rule="nonzero"/></g><g clip-path="url(#5e8554e4fe)"><path fill="#7c3966" d="M 582.175781 54.378906 C 588.367188 47.648438 586.75 44.148438 595.234375 40.78125 C 603.714844 37.414062 601.425781 32.839844 600.351562 26.105469 C 599.273438 19.242188 600.351562 22.203125 603.714844 19.914062 C 607.082031 17.625 612.199219 16.007812 620.140625 15.335938 C 628.085938 14.796875 620.679688 11.96875 620.679688 8.605469 C 620.679688 5.238281 615.023438 5.777344 607.082031 6.855469 C 599.136719 7.929688 600.351562 6.855469 594.5625 4.566406 C 588.90625 2.277344 555.515625 2.277344 546.898438 2.277344 C 538.417969 2.277344 523.070312 4.027344 515.125 4.566406 C 507.183594 5.105469 507.722656 4.566406 492.507812 2.816406 C 477.160156 1.066406 437.039062 2.277344 422.226562 3.890625 C 407.550781 5.640625 396.78125 7.257812 387.089844 13.585938 C 377.394531 19.777344 371.203125 17.488281 360.429688 18.703125 C 349.660156 19.777344 348.582031 19.777344 343.464844 19.777344 C 338.351562 19.777344 338.890625 16.953125 329.867188 20.316406 C 320.847656 23.683594 323.675781 25.972656 320.175781 21.394531 C 316.808594 16.816406 312.230469 21.394531 296.34375 25.300781 C 280.457031 29.203125 302 33.78125 307.113281 35.53125 C 307.113281 35.53125 317.886719 34.992188 324.078125 33.242188 C 330.273438 31.492188 333.097656 35.53125 337.136719 34.320312 C 341.042969 33.242188 342.253906 29.203125 364.875 24.085938 C 387.492188 18.972656 403.378906 23.011719 412.535156 26.914062 C 421.554688 30.820312 421.554688 28.664062 429.5 23.546875 C 437.441406 18.433594 451.039062 14.527344 465.175781 12.238281 C 479.3125 9.949219 470.292969 15.066406 461.273438 18.433594 C 452.25 21.796875 444.308594 20.722656 445.921875 26.375 C 447.675781 32.03125 465.175781 30.28125 470.292969 30.28125 C 475.410156 30.28125 475.945312 38.222656 476.484375 42.800781 C 477.023438 47.378906 475.945312 49.667969 477.023438 54.109375 C 478.101562 58.6875 480.929688 58.015625 475.945312 62.59375 C 470.832031 67.171875 468.003906 66.496094 468.003906 74.441406 C 468.003906 82.382812 471.371094 90.867188 479.3125 96.519531 C 487.257812 102.175781 491.835938 102.714844 496.277344 93.695312 C 500.855469 84.671875 511.625 79.019531 517.28125 76.191406 C 522.933594 73.363281 530.878906 76.191406 538.285156 69.460938 C 545.6875 62.726562 555.246094 65.554688 566.019531 62.054688 C 577.058594 58.957031 575.847656 61.246094 582.175781 54.378906 Z M 582.175781 54.378906 " fill-opacity="1" fill-rule="nonzero"/></g><path fill="#7c3966" d="M 593.484375 67.441406 C 576.519531 69.726562 560.632812 64.074219 563.460938 73.09375 C 566.289062 82.113281 566.824219 95.714844 575.980469 92.886719 C 591.597656 88.039062 608.832031 85.480469 604.925781 78.210938 C 600.753906 70.804688 610.449219 65.152344 593.484375 67.441406 Z M 593.484375 67.441406 " fill-opacity="1" fill-rule="nonzero"/></g></g></g><path fill="#7c3966" d="M 786.207031 285.515625 L 786.132812 285.515625 C 778.695312 285.523438 772.667969 291.5625 772.675781 299.003906 C 772.679688 300.621094 774.039062 304.175781 775.316406 307.648438 C 777.101562 312.503906 785.105469 331.207031 786.175781 332.46875 C 786.175781 332.46875 786.195312 332.527344 786.210938 332.511719 C 786.222656 332.527344 786.246094 332.46875 786.246094 332.46875 C 787.3125 331.203125 794.628906 313.265625 797.074219 307.625 C 798.546875 304.230469 799.695312 300.589844 799.691406 298.972656 C 799.683594 291.53125 793.648438 285.507812 786.207031 285.515625 " fill-opacity="1" fill-rule="nonzero"/><path fill="#ffffff" d="M 786.195312 309.007812 C 780.8125 309.011719 776.445312 304.652344 776.4375 299.273438 C 776.433594 293.886719 780.792969 289.519531 786.175781 289.515625 C 791.558594 289.507812 795.925781 293.867188 795.933594 299.25 C 795.9375 304.632812 791.578125 309 786.195312 309.007812 " fill-opacity="1" fill-rule="nonzero"/><g fill="#000000" fill-opacity="0.4"><g transform="translate(741.698987, 366.227051)"><g><path d="M 19.734375 -1.890625 C 19.148438 -1.609375 18.550781 -1.332031 17.9375 -1.0625 C 17.320312 -0.800781 16.660156 -0.566406 15.953125 -0.359375 C 15.253906 -0.160156 14.488281 -0.00390625 13.65625 0.109375 C 12.832031 0.222656 11.929688 0.28125 10.953125 0.28125 C 7.828125 0.28125 5.414062 -0.414062 3.71875 -1.8125 C 2.03125 -3.21875 1.1875 -5.550781 1.1875 -8.8125 C 1.1875 -10.707031 1.476562 -12.488281 2.0625 -14.15625 C 2.644531 -15.820312 3.507812 -17.28125 4.65625 -18.53125 C 5.800781 -19.78125 7.210938 -20.765625 8.890625 -21.484375 C 10.566406 -22.210938 12.492188 -22.578125 14.671875 -22.578125 C 15.691406 -22.578125 16.628906 -22.503906 17.484375 -22.359375 C 18.335938 -22.222656 19.109375 -22.039062 19.796875 -21.8125 C 20.484375 -21.59375 21.097656 -21.351562 21.640625 -21.09375 C 22.191406 -20.84375 22.691406 -20.601562 23.140625 -20.375 L 21.875 -13.859375 L 15.578125 -13.859375 C 15.597656 -14.085938 15.625 -14.390625 15.65625 -14.765625 C 15.695312 -15.140625 15.726562 -15.519531 15.75 -15.90625 C 15.769531 -16.289062 15.789062 -16.671875 15.8125 -17.046875 C 15.84375 -17.421875 15.859375 -17.734375 15.859375 -17.984375 C 15.859375 -18.171875 15.84375 -18.382812 15.8125 -18.625 C 15.789062 -18.875 15.734375 -19.113281 15.640625 -19.34375 C 15.546875 -19.582031 15.398438 -19.773438 15.203125 -19.921875 C 15.003906 -20.078125 14.742188 -20.15625 14.421875 -20.15625 C 13.816406 -20.15625 13.257812 -19.90625 12.75 -19.40625 C 12.25 -18.90625 11.800781 -18.238281 11.40625 -17.40625 C 11.007812 -16.582031 10.660156 -15.644531 10.359375 -14.59375 C 10.054688 -13.539062 9.804688 -12.472656 9.609375 -11.390625 C 9.410156 -10.304688 9.257812 -9.238281 9.15625 -8.1875 C 9.050781 -7.132812 9 -6.210938 9 -5.421875 C 9 -5.191406 9.007812 -4.898438 9.03125 -4.546875 C 9.050781 -4.203125 9.117188 -3.863281 9.234375 -3.53125 C 9.359375 -3.207031 9.539062 -2.925781 9.78125 -2.6875 C 10.03125 -2.457031 10.363281 -2.34375 10.78125 -2.34375 C 11.5 -2.34375 12.195312 -2.789062 12.875 -3.6875 C 13.550781 -4.59375 14.148438 -6.195312 14.671875 -8.5 L 21.140625 -8.5 Z M 19.734375 -1.890625 "/></g></g></g><g fill="#000000" fill-opacity="0.4"><g transform="translate(764.058933, 366.227051)"><g><path d="M 2.515625 -13.75 C 3.710938 -14.332031 4.929688 -14.757812 6.171875 -15.03125 C 7.421875 -15.300781 8.816406 -15.4375 10.359375 -15.4375 C 11.847656 -15.4375 13.082031 -15.316406 14.0625 -15.078125 C 15.050781 -14.847656 15.835938 -14.507812 16.421875 -14.0625 C 17.003906 -13.625 17.410156 -13.097656 17.640625 -12.484375 C 17.867188 -11.878906 17.984375 -11.195312 17.984375 -10.4375 C 17.984375 -9.988281 17.953125 -9.503906 17.890625 -8.984375 C 17.835938 -8.472656 17.773438 -8.046875 17.703125 -7.703125 L 16.0625 0 L 10.4375 0 L 9.796875 -2.234375 L 9.59375 -2.234375 C 8.84375 -1.421875 7.972656 -0.796875 6.984375 -0.359375 C 5.992188 0.0664062 5.007812 0.28125 4.03125 0.28125 C 3.46875 0.28125 2.914062 0.195312 2.375 0.03125 C 1.84375 -0.125 1.363281 -0.367188 0.9375 -0.703125 C 0.519531 -1.046875 0.1875 -1.476562 -0.0625 -2 C -0.320312 -2.53125 -0.453125 -3.171875 -0.453125 -3.921875 C -0.453125 -5.128906 -0.117188 -6.085938 0.546875 -6.796875 C 1.210938 -7.515625 2.085938 -8.050781 3.171875 -8.40625 C 4.253906 -8.769531 5.476562 -9 6.84375 -9.09375 C 8.207031 -9.1875 9.578125 -9.234375 10.953125 -9.234375 C 11.003906 -9.472656 11.0625 -9.804688 11.125 -10.234375 C 11.195312 -10.671875 11.234375 -11.050781 11.234375 -11.375 C 11.234375 -11.789062 11.117188 -12.179688 10.890625 -12.546875 C 10.671875 -12.910156 10.210938 -13.09375 9.515625 -13.09375 C 8.703125 -13.09375 8.101562 -12.851562 7.71875 -12.375 C 7.332031 -11.894531 7.082031 -11.316406 6.96875 -10.640625 L 1.859375 -10.640625 Z M 10.5625 -7.59375 L 9.9375 -7.59375 C 9.257812 -7.59375 8.679688 -7.503906 8.203125 -7.328125 C 7.722656 -7.148438 7.335938 -6.921875 7.046875 -6.640625 C 6.753906 -6.367188 6.535156 -6.054688 6.390625 -5.703125 C 6.253906 -5.359375 6.1875 -5.007812 6.1875 -4.65625 C 6.1875 -4.09375 6.332031 -3.671875 6.625 -3.390625 C 6.914062 -3.109375 7.265625 -2.96875 7.671875 -2.96875 C 8.160156 -2.96875 8.640625 -3.144531 9.109375 -3.5 C 9.585938 -3.851562 9.890625 -4.320312 10.015625 -4.90625 Z M 10.5625 -7.59375 "/></g></g></g><g fill="#000000" fill-opacity="0.4"><g transform="translate(783.374568, 366.227051)"><g><path d="M 6.75 0 L -0.34375 0 L 2.828125 -15.046875 L 10.015625 -15.046875 Z M 10.921875 -19.640625 C 10.921875 -19.097656 10.804688 -18.628906 10.578125 -18.234375 C 10.359375 -17.835938 10.066406 -17.5 9.703125 -17.21875 C 9.347656 -16.9375 8.9375 -16.722656 8.46875 -16.578125 C 8 -16.441406 7.519531 -16.375 7.03125 -16.375 C 6.101562 -16.375 5.320312 -16.59375 4.6875 -17.03125 C 4.0625 -17.476562 3.75 -18.179688 3.75 -19.140625 C 3.75 -19.660156 3.851562 -20.125 4.0625 -20.53125 C 4.269531 -20.9375 4.550781 -21.269531 4.90625 -21.53125 C 5.269531 -21.800781 5.691406 -22.003906 6.171875 -22.140625 C 6.648438 -22.285156 7.148438 -22.359375 7.671875 -22.359375 C 8.578125 -22.359375 9.34375 -22.132812 9.96875 -21.6875 C 10.601562 -21.25 10.921875 -20.566406 10.921875 -19.640625 Z M 10.921875 -19.640625 "/></g></g></g><g fill="#000000" fill-opacity="0.4"><g transform="translate(793.627249, 366.227051)"><g><path d="M 2.828125 -15.046875 L 8.546875 -15.046875 L 9.0625 -12.421875 L 9.3125 -12.421875 C 9.84375 -13.265625 10.53125 -13.976562 11.375 -14.5625 C 12.21875 -15.144531 13.328125 -15.4375 14.703125 -15.4375 C 14.796875 -15.4375 14.941406 -15.429688 15.140625 -15.421875 C 15.335938 -15.410156 15.554688 -15.375 15.796875 -15.3125 C 16.046875 -15.25 16.300781 -15.164062 16.5625 -15.0625 C 16.832031 -14.957031 17.097656 -14.8125 17.359375 -14.625 L 15.8125 -7.421875 L 12 -7.421875 C 11.957031 -8.867188 11.832031 -9.878906 11.625 -10.453125 C 11.414062 -11.023438 11.078125 -11.3125 10.609375 -11.3125 C 10.367188 -11.3125 10.113281 -11.253906 9.84375 -11.140625 C 9.582031 -11.035156 9.3125 -10.8125 9.03125 -10.46875 L 6.796875 0 L -0.34375 0 Z M 2.828125 -15.046875 "/></g></g></g><g fill="#000000" fill-opacity="0.4"><g transform="translate(810.528432, 366.227051)"><g><path d="M 11.03125 -15.4375 C 13.800781 -15.4375 15.816406 -14.945312 17.078125 -13.96875 C 18.410156 -12.9375 19.078125 -11.234375 19.078125 -8.859375 C 19.078125 -7.390625 18.832031 -6.0625 18.34375 -4.875 C 17.851562 -3.695312 17.164062 -2.722656 16.28125 -1.953125 C 14.5 -0.460938 11.929688 0.28125 8.578125 0.28125 C 5.703125 0.28125 3.648438 -0.265625 2.421875 -1.359375 C 1.085938 -2.503906 0.421875 -4.222656 0.421875 -6.515625 C 0.421875 -8.023438 0.726562 -9.398438 1.34375 -10.640625 C 1.96875 -11.878906 2.863281 -12.90625 4.03125 -13.71875 C 5.726562 -14.863281 8.0625 -15.4375 11.03125 -15.4375 Z M 8.640625 -2.09375 C 9.222656 -2.09375 9.726562 -2.421875 10.15625 -3.078125 C 10.59375 -3.734375 10.9375 -4.53125 11.1875 -5.46875 C 11.445312 -6.414062 11.640625 -7.394531 11.765625 -8.40625 C 11.898438 -9.425781 11.96875 -10.3125 11.96875 -11.0625 C 11.96875 -11.71875 11.898438 -12.210938 11.765625 -12.546875 C 11.640625 -12.890625 11.367188 -13.0625 10.953125 -13.0625 C 10.328125 -13.0625 9.785156 -12.722656 9.328125 -12.046875 C 8.867188 -11.367188 8.5 -10.5625 8.21875 -9.625 C 7.945312 -8.6875 7.742188 -7.726562 7.609375 -6.75 C 7.484375 -5.769531 7.421875 -4.976562 7.421875 -4.375 C 7.421875 -2.851562 7.828125 -2.09375 8.640625 -2.09375 Z M 8.640625 -2.09375 "/></g></g></g><g fill="#7c3966" fill-opacity="1"><g transform="translate(741.698987, 364.914551)"><g><path d="M 19.734375 -1.890625 C 19.148438 -1.609375 18.550781 -1.332031 17.9375 -1.0625 C 17.320312 -0.800781 16.660156 -0.566406 15.953125 -0.359375 C 15.253906 -0.160156 14.488281 -0.00390625 13.65625 0.109375 C 12.832031 0.222656 11.929688 0.28125 10.953125 0.28125 C 7.828125 0.28125 5.414062 -0.414062 3.71875 -1.8125 C 2.03125 -3.21875 1.1875 -5.550781 1.1875 -8.8125 C 1.1875 -10.707031 1.476562 -12.488281 2.0625 -14.15625 C 2.644531 -15.820312 3.507812 -17.28125 4.65625 -18.53125 C 5.800781 -19.78125 7.210938 -20.765625 8.890625 -21.484375 C 10.566406 -22.210938 12.492188 -22.578125 14.671875 -22.578125 C 15.691406 -22.578125 16.628906 -22.503906 17.484375 -22.359375 C 18.335938 -22.222656 19.109375 -22.039062 19.796875 -21.8125 C 20.484375 -21.59375 21.097656 -21.351562 21.640625 -21.09375 C 22.191406 -20.84375 22.691406 -20.601562 23.140625 -20.375 L 21.875 -13.859375 L 15.578125 -13.859375 C 15.597656 -14.085938 15.625 -14.390625 15.65625 -14.765625 C 15.695312 -15.140625 15.726562 -15.519531 15.75 -15.90625 C 15.769531 -16.289062 15.789062 -16.671875 15.8125 -17.046875 C 15.84375 -17.421875 15.859375 -17.734375 15.859375 -17.984375 C 15.859375 -18.171875 15.84375 -18.382812 15.8125 -18.625 C 15.789062 -18.875 15.734375 -19.113281 15.640625 -19.34375 C 15.546875 -19.582031 15.398438 -19.773438 15.203125 -19.921875 C 15.003906 -20.078125 14.742188 -20.15625 14.421875 -20.15625 C 13.816406 -20.15625 13.257812 -19.90625 12.75 -19.40625 C 12.25 -18.90625 11.800781 -18.238281 11.40625 -17.40625 C 11.007812 -16.582031 10.660156 -15.644531 10.359375 -14.59375 C 10.054688 -13.539062 9.804688 -12.472656 9.609375 -11.390625 C 9.410156 -10.304688 9.257812 -9.238281 9.15625 -8.1875 C 9.050781 -7.132812 9 -6.210938 9 -5.421875 C 9 -5.191406 9.007812 -4.898438 9.03125 -4.546875 C 9.050781 -4.203125 9.117188 -3.863281 9.234375 -3.53125 C 9.359375 -3.207031 9.539062 -2.925781 9.78125 -2.6875 C 10.03125 -2.457031 10.363281 -2.34375 10.78125 -2.34375 C 11.5 -2.34375 12.195312 -2.789062 12.875 -3.6875 C 13.550781 -4.59375 14.148438 -6.195312 14.671875 -8.5 L 21.140625 -8.5 Z M 19.734375 -1.890625 "/></g></g></g><g fill="#7c3966" fill-opacity="1"><g transform="translate(764.058933, 364.914551)"><g><path d="M 2.515625 -13.75 C 3.710938 -14.332031 4.929688 -14.757812 6.171875 -15.03125 C 7.421875 -15.300781 8.816406 -15.4375 10.359375 -15.4375 C 11.847656 -15.4375 13.082031 -15.316406 14.0625 -15.078125 C 15.050781 -14.847656 15.835938 -14.507812 16.421875 -14.0625 C 17.003906 -13.625 17.410156 -13.097656 17.640625 -12.484375 C 17.867188 -11.878906 17.984375 -11.195312 17.984375 -10.4375 C 17.984375 -9.988281 17.953125 -9.503906 17.890625 -8.984375 C 17.835938 -8.472656 17.773438 -8.046875 17.703125 -7.703125 L 16.0625 0 L 10.4375 0 L 9.796875 -2.234375 L 9.59375 -2.234375 C 8.84375 -1.421875 7.972656 -0.796875 6.984375 -0.359375 C 5.992188 0.0664062 5.007812 0.28125 4.03125 0.28125 C 3.46875 0.28125 2.914062 0.195312 2.375 0.03125 C 1.84375 -0.125 1.363281 -0.367188 0.9375 -0.703125 C 0.519531 -1.046875 0.1875 -1.476562 -0.0625 -2 C -0.320312 -2.53125 -0.453125 -3.171875 -0.453125 -3.921875 C -0.453125 -5.128906 -0.117188 -6.085938 0.546875 -6.796875 C 1.210938 -7.515625 2.085938 -8.050781 3.171875 -8.40625 C 4.253906 -8.769531 5.476562 -9 6.84375 -9.09375 C 8.207031 -9.1875 9.578125 -9.234375 10.953125 -9.234375 C 11.003906 -9.472656 11.0625 -9.804688 11.125 -10.234375 C 11.195312 -10.671875 11.234375 -11.050781 11.234375 -11.375 C 11.234375 -11.789062 11.117188 -12.179688 10.890625 -12.546875 C 10.671875 -12.910156 10.210938 -13.09375 9.515625 -13.09375 C 8.703125 -13.09375 8.101562 -12.851562 7.71875 -12.375 C 7.332031 -11.894531 7.082031 -11.316406 6.96875 -10.640625 L 1.859375 -10.640625 Z M 10.5625 -7.59375 L 9.9375 -7.59375 C 9.257812 -7.59375 8.679688 -7.503906 8.203125 -7.328125 C 7.722656 -7.148438 7.335938 -6.921875 7.046875 -6.640625 C 6.753906 -6.367188 6.535156 -6.054688 6.390625 -5.703125 C 6.253906 -5.359375 6.1875 -5.007812 6.1875 -4.65625 C 6.1875 -4.09375 6.332031 -3.671875 6.625 -3.390625 C 6.914062 -3.109375 7.265625 -2.96875 7.671875 -2.96875 C 8.160156 -2.96875 8.640625 -3.144531 9.109375 -3.5 C 9.585938 -3.851562 9.890625 -4.320312 10.015625 -4.90625 Z M 10.5625 -7.59375 "/></g></g></g><g fill="#7c3966" fill-opacity="1"><g transform="translate(783.374568, 364.914551)"><g><path d="M 6.75 0 L -0.34375 0 L 2.828125 -15.046875 L 10.015625 -15.046875 Z M 10.921875 -19.640625 C 10.921875 -19.097656 10.804688 -18.628906 10.578125 -18.234375 C 10.359375 -17.835938 10.066406 -17.5 9.703125 -17.21875 C 9.347656 -16.9375 8.9375 -16.722656 8.46875 -16.578125 C 8 -16.441406 7.519531 -16.375 7.03125 -16.375 C 6.101562 -16.375 5.320312 -16.59375 4.6875 -17.03125 C 4.0625 -17.476562 3.75 -18.179688 3.75 -19.140625 C 3.75 -19.660156 3.851562 -20.125 4.0625 -20.53125 C 4.269531 -20.9375 4.550781 -21.269531 4.90625 -21.53125 C 5.269531 -21.800781 5.691406 -22.003906 6.171875 -22.140625 C 6.648438 -22.285156 7.148438 -22.359375 7.671875 -22.359375 C 8.578125 -22.359375 9.34375 -22.132812 9.96875 -21.6875 C 10.601562 -21.25 10.921875 -20.566406 10.921875 -19.640625 Z M 10.921875 -19.640625 "/></g></g></g><g fill="#7c3966" fill-opacity="1"><g transform="translate(793.627249, 364.914551)"><g><path d="M 2.828125 -15.046875 L 8.546875 -15.046875 L 9.0625 -12.421875 L 9.3125 -12.421875 C 9.84375 -13.265625 10.53125 -13.976562 11.375 -14.5625 C 12.21875 -15.144531 13.328125 -15.4375 14.703125 -15.4375 C 14.796875 -15.4375 14.941406 -15.429688 15.140625 -15.421875 C 15.335938 -15.410156 15.554688 -15.375 15.796875 -15.3125 C 16.046875 -15.25 16.300781 -15.164062 16.5625 -15.0625 C 16.832031 -14.957031 17.097656 -14.8125 17.359375 -14.625 L 15.8125 -7.421875 L 12 -7.421875 C 11.957031 -8.867188 11.832031 -9.878906 11.625 -10.453125 C 11.414062 -11.023438 11.078125 -11.3125 10.609375 -11.3125 C 10.367188 -11.3125 10.113281 -11.253906 9.84375 -11.140625 C 9.582031 -11.035156 9.3125 -10.8125 9.03125 -10.46875 L 6.796875 0 L -0.34375 0 Z M 2.828125 -15.046875 "/></g></g></g><g fill="#7c3966" fill-opacity="1"><g transform="translate(810.528432, 364.914551)"><g><path d="M 11.03125 -15.4375 C 13.800781 -15.4375 15.816406 -14.945312 17.078125 -13.96875 C 18.410156 -12.9375 19.078125 -11.234375 19.078125 -8.859375 C 19.078125 -7.390625 18.832031 -6.0625 18.34375 -4.875 C 17.851562 -3.695312 17.164062 -2.722656 16.28125 -1.953125 C 14.5 -0.460938 11.929688 0.28125 8.578125 0.28125 C 5.703125 0.28125 3.648438 -0.265625 2.421875 -1.359375 C 1.085938 -2.503906 0.421875 -4.222656 0.421875 -6.515625 C 0.421875 -8.023438 0.726562 -9.398438 1.34375 -10.640625 C 1.96875 -11.878906 2.863281 -12.90625 4.03125 -13.71875 C 5.726562 -14.863281 8.0625 -15.4375 11.03125 -15.4375 Z M 8.640625 -2.09375 C 9.222656 -2.09375 9.726562 -2.421875 10.15625 -3.078125 C 10.59375 -3.734375 10.9375 -4.53125 11.1875 -5.46875 C 11.445312 -6.414062 11.640625 -7.394531 11.765625 -8.40625 C 11.898438 -9.425781 11.96875 -10.3125 11.96875 -11.0625 C 11.96875 -11.71875 11.898438 -12.210938 11.765625 -12.546875 C 11.640625 -12.890625 11.367188 -13.0625 10.953125 -13.0625 C 10.328125 -13.0625 9.785156 -12.722656 9.328125 -12.046875 C 8.867188 -11.367188 8.5 -10.5625 8.21875 -9.625 C 7.945312 -8.6875 7.742188 -7.726562 7.609375 -6.75 C 7.484375 -5.769531 7.421875 -4.976562 7.421875 -4.375 C 7.421875 -2.851562 7.828125 -2.09375 8.640625 -2.09375 Z M 8.640625 -2.09375 "/></g></g></g></svg>