<svg xmlns="http://www.w3.org/2000/svg" xmlns:xlink="http://www.w3.org/1999/xlink" width="499" zoomAndPan="magnify" viewBox="0 0 374.25 225" height="300" preserveAspectRatio="xMidYMid meet" version="1.0"><defs><clipPath id="86f675f14c"><path d="M 0 0.226562 L 373.5 0.226562 L 373.5 224.773438 L 0 224.773438 Z M 0 0.226562 " clip-rule="nonzero"/></clipPath><clipPath id="169ff94cb5"><path d="M 339 6.496094 L 341 6.496094 L 341 11 L 339 11 Z M 339 6.496094 " clip-rule="nonzero"/></clipPath><clipPath id="45e7966faf"><path d="M 337 37 L 343 37 L 343 44.667969 L 337 44.667969 Z M 337 37 " clip-rule="nonzero"/></clipPath><clipPath id="81eda91ecf"><path d="M 346 38 L 352 38 L 352 44.667969 L 346 44.667969 Z M 346 38 " clip-rule="nonzero"/></clipPath></defs><g clip-path="url(#86f675f14c)"><path fill="#ffffff" d="M 0 0.226562 L 373.5 0.226562 L 373.5 224.773438 L 0 224.773438 Z M 0 0.226562 " fill-opacity="1" fill-rule="nonzero"/><path fill="#ffffff" d="M 0 0.226562 L 373.5 0.226562 L 373.5 224.773438 L 0 224.773438 Z M 0 0.226562 " fill-opacity="1" fill-rule="nonzero"/></g><path fill="#a56b8a" d="M 335.730469 17.878906 C 335.308594 17.167969 335.0625 16.363281 335.0625 15.539062 C 335.0625 13.046875 337.132812 11.019531 339.675781 11.019531 C 341.523438 11.019531 343.148438 12.085938 343.863281 13.691406 C 343.394531 13.578125 342.90625 13.535156 342.414062 13.535156 C 339.472656 13.535156 336.890625 15.316406 335.730469 17.878906 Z M 335.730469 17.878906 " fill-opacity="1" fill-rule="evenodd"/><g clip-path="url(#169ff94cb5)"><path fill="#a56b8a" d="M 339.675781 10.460938 C 339.339844 10.460938 339.074219 10.191406 339.074219 9.859375 L 339.074219 7.097656 C 339.074219 6.761719 339.339844 6.496094 339.675781 6.496094 C 340.007812 6.496094 340.277344 6.761719 340.277344 7.097656 L 340.277344 9.859375 C 340.277344 10.191406 340.007812 10.460938 339.675781 10.460938 Z M 339.675781 10.460938 " fill-opacity="1" fill-rule="evenodd"/></g><path fill="#a56b8a" d="M 343.683594 12.132812 C 343.527344 12.132812 343.371094 12.066406 343.261719 11.953125 C 343.039062 11.707031 343.039062 11.351562 343.261719 11.105469 L 345.222656 9.144531 C 345.46875 8.921875 345.84375 8.921875 346.070312 9.144531 C 346.292969 9.367188 346.292969 9.746094 346.070312 9.992188 L 344.109375 11.953125 C 343.996094 12.066406 343.839844 12.132812 343.683594 12.132812 Z M 343.683594 12.132812 " fill-opacity="1" fill-rule="evenodd"/><path fill="#a56b8a" d="M 335.664062 12.132812 C 335.507812 12.132812 335.351562 12.066406 335.238281 11.953125 L 333.277344 9.992188 C 333.054688 9.746094 333.054688 9.367188 333.277344 9.144531 C 333.523438 8.921875 333.882812 8.921875 334.125 9.144531 L 336.085938 11.105469 C 336.308594 11.351562 336.308594 11.707031 336.085938 11.953125 C 335.976562 12.066406 335.820312 12.132812 335.664062 12.132812 Z M 335.664062 12.132812 " fill-opacity="1" fill-rule="evenodd"/><path fill="#a56b8a" d="M 341.878906 10.929688 C 341.8125 10.929688 341.746094 10.90625 341.65625 10.882812 C 341.367188 10.75 341.210938 10.394531 341.34375 10.105469 L 341.925781 8.699219 C 342.035156 8.410156 342.390625 8.253906 342.703125 8.386719 C 342.992188 8.523438 343.148438 8.855469 343.015625 9.167969 L 342.4375 10.550781 C 342.347656 10.792969 342.125 10.929688 341.878906 10.929688 Z M 341.878906 10.929688 " fill-opacity="1" fill-rule="evenodd"/><path fill="#a56b8a" d="M 333.035156 18.816406 C 332.789062 18.816406 332.589844 18.683594 332.476562 18.460938 C 332.367188 18.148438 332.5 17.8125 332.8125 17.679688 L 334.191406 17.101562 C 334.503906 16.988281 334.839844 17.121094 334.972656 17.433594 C 335.105469 17.722656 334.949219 18.082031 334.660156 18.191406 L 333.257812 18.769531 C 333.191406 18.816406 333.101562 18.816406 333.035156 18.816406 Z M 333.035156 18.816406 " fill-opacity="1" fill-rule="evenodd"/><path fill="#a56b8a" d="M 334.460938 13.914062 C 334.394531 13.914062 334.304688 13.890625 334.238281 13.871094 L 332.855469 13.289062 C 332.542969 13.15625 332.410156 12.824219 332.523438 12.511719 C 332.65625 12.222656 332.988281 12.066406 333.300781 12.199219 L 334.683594 12.777344 C 334.996094 12.890625 335.152344 13.246094 335.015625 13.558594 C 334.929688 13.78125 334.707031 13.914062 334.460938 13.914062 Z M 334.460938 13.914062 " fill-opacity="1" fill-rule="evenodd"/><path fill="#a56b8a" d="M 337.558594 10.882812 C 337.335938 10.882812 337.113281 10.75 337 10.503906 L 336.441406 9.125 C 336.308594 8.8125 336.441406 8.476562 336.753906 8.34375 C 337.066406 8.210938 337.402344 8.367188 337.535156 8.679688 L 338.113281 10.058594 C 338.226562 10.371094 338.09375 10.707031 337.78125 10.839844 C 337.714844 10.863281 337.625 10.882812 337.558594 10.882812 Z M 337.558594 10.882812 " fill-opacity="1" fill-rule="evenodd"/><path fill="#a56b8a" d="M 334.015625 16.140625 L 331.230469 16.140625 C 330.894531 16.140625 330.628906 15.875 330.628906 15.539062 C 330.628906 15.207031 330.894531 14.9375 331.230469 14.9375 L 334.015625 14.9375 C 334.328125 14.9375 334.59375 15.207031 334.59375 15.539062 C 334.59375 15.875 334.328125 16.140625 334.015625 16.140625 Z M 334.015625 16.140625 " fill-opacity="1" fill-rule="evenodd"/><path fill="#a56b8a" d="M 352.6875 31.828125 L 352.039062 31.828125 L 352.085938 31.425781 L 352.105469 31.425781 L 352.085938 31.292969 L 352.105469 31.136719 L 352.085938 31.136719 L 352.039062 30.625 C 351.90625 29.042969 351.28125 27.527344 350.257812 26.324219 L 349.921875 25.921875 L 349.945312 25.902344 L 349.832031 25.8125 L 349.722656 25.699219 L 349.699219 25.722656 L 349.320312 25.386719 C 348.097656 24.363281 346.601562 23.738281 345.019531 23.605469 L 344.507812 23.5625 L 344.507812 23.539062 L 344.21875 23.539062 L 344.21875 23.5625 L 343.707031 23.605469 C 342.125 23.738281 340.652344 24.339844 339.449219 25.367188 L 339.050781 25.679688 L 339.050781 25.65625 L 338.9375 25.765625 L 338.828125 25.855469 L 338.847656 25.878906 L 338.515625 26.28125 C 337.46875 27.503906 336.820312 29.019531 336.6875 30.625 L 336.644531 31.136719 L 336.621094 31.136719 L 336.621094 31.425781 L 336.644531 31.425781 L 336.6875 31.828125 L 335.460938 31.828125 C 333.054688 31.828125 331.117188 29.890625 331.117188 27.484375 C 331.117188 25.746094 332.144531 24.207031 333.703125 23.515625 C 333.703125 23.496094 333.703125 23.472656 333.703125 23.429688 C 333.703125 22.046875 334.59375 20.800781 335.863281 20.308594 C 336.132812 16.945312 338.984375 14.269531 342.414062 14.269531 C 345.132812 14.269531 347.539062 15.917969 348.519531 18.414062 C 350.660156 18.546875 352.484375 20.0625 352.996094 22.113281 C 355.558594 22.269531 357.609375 24.386719 357.609375 26.96875 C 357.609375 29.644531 355.402344 31.828125 352.6875 31.828125 Z M 352.6875 31.828125 " fill-opacity="1" fill-rule="evenodd"/><path fill="#a56b8a" d="M 359.835938 29.222656 L 357.878906 29.222656 C 358.1875 28.53125 358.34375 27.773438 358.34375 26.96875 C 358.34375 24.164062 356.273438 21.847656 353.578125 21.421875 C 352.863281 19.460938 351.105469 18.015625 349.03125 17.722656 C 348.164062 15.875 346.558594 14.492188 344.664062 13.890625 C 345.890625 12.488281 347.695312 11.664062 349.589844 11.664062 C 352.285156 11.664062 354.691406 13.3125 355.695312 15.808594 C 357.808594 15.941406 359.636719 17.457031 360.171875 19.507812 C 362.734375 19.664062 364.761719 21.777344 364.761719 24.363281 C 364.761719 27.039062 362.554688 29.222656 359.835938 29.222656 Z M 359.835938 29.222656 " fill-opacity="1" fill-rule="evenodd"/><path fill="#a56b8a" d="M 343.773438 38.222656 C 342.28125 38.089844 340.921875 37.488281 339.851562 36.574219 L 341.253906 35.214844 C 341.5 34.992188 341.5 34.613281 341.253906 34.367188 C 341.03125 34.144531 340.652344 34.144531 340.429688 34.367188 L 339.003906 35.726562 C 338.136719 34.65625 337.558594 33.34375 337.421875 31.871094 L 339.382812 31.871094 C 339.71875 31.871094 339.984375 31.605469 339.984375 31.269531 C 339.984375 30.957031 339.71875 30.691406 339.382812 30.691406 L 337.421875 30.691406 C 337.558594 29.199219 338.160156 27.839844 339.074219 26.769531 L 340.429688 28.171875 C 340.542969 28.308594 340.699219 28.351562 340.832031 28.351562 C 340.988281 28.351562 341.144531 28.308594 341.253906 28.171875 C 341.5 27.949219 341.5 27.570312 341.253906 27.347656 L 339.917969 25.921875 C 340.988281 25.054688 342.304688 24.476562 343.773438 24.339844 L 343.773438 26.300781 C 343.773438 26.636719 344.039062 26.902344 344.351562 26.902344 C 344.6875 26.902344 344.953125 26.636719 344.953125 26.300781 L 344.953125 24.339844 C 346.425781 24.476562 347.761719 25.054688 348.832031 25.96875 L 347.449219 27.347656 C 347.226562 27.570312 347.226562 27.949219 347.449219 28.171875 C 347.582031 28.308594 347.71875 28.351562 347.875 28.351562 C 348.027344 28.351562 348.183594 28.308594 348.296875 28.171875 L 349.679688 26.792969 C 350.589844 27.863281 351.171875 29.222656 351.304688 30.691406 L 349.34375 30.691406 C 349.007812 30.691406 348.742188 30.957031 348.742188 31.269531 C 348.742188 31.605469 349.007812 31.871094 349.34375 31.871094 L 351.304688 31.871094 C 351.171875 33.34375 350.589844 34.679688 349.699219 35.75 L 348.296875 34.367188 C 348.074219 34.144531 347.695312 34.144531 347.449219 34.367188 C 347.226562 34.613281 347.226562 34.992188 347.449219 35.214844 L 348.851562 36.597656 C 347.785156 37.507812 346.425781 38.089844 344.953125 38.222656 L 344.953125 36.261719 C 344.953125 35.925781 344.6875 35.660156 344.351562 35.660156 C 344.039062 35.660156 343.773438 35.925781 343.773438 36.261719 Z M 344.351562 33.675781 C 343.039062 33.675781 341.96875 32.609375 341.96875 31.269531 C 341.96875 30.203125 342.683594 29.289062 343.660156 28.976562 L 343.660156 27.972656 C 343.660156 27.640625 343.929688 27.371094 344.265625 27.371094 C 344.597656 27.371094 344.867188 27.640625 344.867188 27.972656 L 344.867188 28.929688 C 345.933594 29.175781 346.757812 30.132812 346.757812 31.269531 C 346.757812 31.515625 346.714844 31.761719 346.648438 31.960938 L 347.785156 32.628906 C 348.074219 32.785156 348.164062 33.140625 348.007812 33.433594 C 347.894531 33.632812 347.695312 33.722656 347.472656 33.722656 C 347.382812 33.722656 347.273438 33.699219 347.183594 33.65625 L 346.046875 32.988281 C 345.601562 33.410156 345.019531 33.675781 344.351562 33.675781 Z M 344.351562 30.066406 C 343.707031 30.066406 343.148438 30.625 343.148438 31.269531 C 343.148438 31.9375 343.707031 32.496094 344.351562 32.496094 C 345.019531 32.496094 345.578125 31.9375 345.578125 31.269531 C 345.578125 30.625 345.019531 30.066406 344.351562 30.066406 Z M 344.351562 30.066406 " fill-opacity="1" fill-rule="evenodd"/><path fill="#a56b8a" d="M 354.421875 39.136719 C 352.996094 39.136719 351.839844 37.976562 351.839844 36.550781 C 351.839844 35.617188 352.773438 34.546875 353.511719 33.675781 C 353.6875 33.476562 353.84375 33.296875 353.957031 33.140625 C 354.179688 32.875 354.667969 32.875 354.890625 33.140625 C 355.003906 33.296875 355.160156 33.476562 355.335938 33.675781 C 356.074219 34.546875 357.007812 35.617188 357.007812 36.550781 C 357.007812 37.976562 355.851562 39.136719 354.421875 39.136719 Z M 354.421875 39.136719 " fill-opacity="1" fill-rule="evenodd"/><path fill="#a56b8a" d="M 334.304688 39.136719 C 332.878906 39.136719 331.71875 37.976562 331.71875 36.550781 C 331.71875 35.617188 332.65625 34.546875 333.390625 33.675781 C 333.570312 33.476562 333.726562 33.296875 333.835938 33.140625 C 334.058594 32.875 334.550781 32.875 334.773438 33.140625 C 334.882812 33.296875 335.039062 33.476562 335.195312 33.675781 C 335.953125 34.546875 336.890625 35.617188 336.890625 36.550781 C 336.890625 37.976562 335.730469 39.136719 334.304688 39.136719 Z M 334.304688 39.136719 " fill-opacity="1" fill-rule="evenodd"/><g clip-path="url(#45e7966faf)"><path fill="#a56b8a" d="M 339.808594 44.082031 C 338.382812 44.082031 337.222656 42.921875 337.222656 41.496094 C 337.222656 40.5625 338.136719 39.492188 338.894531 38.625 C 339.050781 38.421875 339.207031 38.246094 339.339844 38.089844 C 339.449219 37.953125 339.605469 37.867188 339.808594 37.867188 C 339.984375 37.867188 340.140625 37.953125 340.253906 38.089844 C 340.386719 38.246094 340.542969 38.421875 340.699219 38.625 C 341.457031 39.492188 342.371094 40.5625 342.371094 41.496094 C 342.371094 42.921875 341.210938 44.082031 339.808594 44.082031 Z M 339.808594 44.082031 " fill-opacity="1" fill-rule="evenodd"/></g><g clip-path="url(#81eda91ecf)"><path fill="#a56b8a" d="M 348.652344 44.527344 C 347.226562 44.527344 346.070312 43.371094 346.070312 41.941406 C 346.070312 41.007812 347.003906 39.914062 347.738281 39.070312 C 347.917969 38.867188 348.074219 38.691406 348.183594 38.535156 C 348.296875 38.402344 348.476562 38.3125 348.652344 38.3125 C 348.832031 38.3125 349.007812 38.402344 349.121094 38.535156 C 349.230469 38.691406 349.386719 38.867188 349.542969 39.070312 C 350.300781 39.9375 351.238281 41.007812 351.238281 41.941406 C 351.238281 43.371094 350.078125 44.527344 348.652344 44.527344 Z M 348.652344 44.527344 " fill-opacity="1" fill-rule="evenodd"/></g></svg>