<svg xmlns="http://www.w3.org/2000/svg" xmlns:xlink="http://www.w3.org/1999/xlink" width="499" zoomAndPan="magnify" viewBox="0 0 374.25 225" height="300" preserveAspectRatio="xMidYMid meet" version="1.0"><defs><clipPath id="ea793db51b"><path d="M 0 0.226562 L 373.5 0.226562 L 373.5 224.773438 L 0 224.773438 Z M 0 0.226562 " clip-rule="nonzero"/></clipPath><clipPath id="b4371532d8"><path d="M 330.976562 17 L 334 17 L 334 19 L 330.976562 19 Z M 330.976562 17 " clip-rule="nonzero"/></clipPath><clipPath id="379d33df39"><path d="M 342 9.183594 L 354 9.183594 L 354 47 L 342 47 Z M 342 9.183594 " clip-rule="nonzero"/></clipPath><clipPath id="a55c516715"><path d="M 341 9.183594 L 354 9.183594 L 354 47.355469 L 341 47.355469 Z M 341 9.183594 " clip-rule="nonzero"/></clipPath><clipPath id="9ccf2c8136"><path d="M 342 9.183594 L 354 9.183594 L 354 47.355469 L 342 47.355469 Z M 342 9.183594 " clip-rule="nonzero"/></clipPath><clipPath id="c45c418aa9"><path d="M 342 9.183594 L 354 9.183594 L 354 47 L 342 47 Z M 342 9.183594 " clip-rule="nonzero"/></clipPath><clipPath id="6c3b1a3295"><path d="M 342 9.183594 L 353 9.183594 L 353 47 L 342 47 Z M 342 9.183594 " clip-rule="nonzero"/></clipPath><clipPath id="75130224a8"><path d="M 352 26 L 365.40625 26 L 365.40625 38 L 352 38 Z M 352 26 " clip-rule="nonzero"/></clipPath></defs><g clip-path="url(#ea793db51b)"><path fill="#ffffff" d="M 0 0.226562 L 373.5 0.226562 L 373.5 224.773438 L 0 224.773438 Z M 0 0.226562 " fill-opacity="1" fill-rule="nonzero"/><path fill="#ffffff" d="M 0 0.226562 L 373.5 0.226562 L 373.5 224.773438 L 0 224.773438 Z M 0 0.226562 " fill-opacity="1" fill-rule="nonzero"/></g><path fill="#d9c0ce" d="M 334.144531 17.976562 C 334.144531 19.511719 335.390625 20.761719 336.925781 20.761719 C 338.464844 20.761719 339.714844 19.519531 339.714844 17.980469 C 339.714844 16.441406 338.46875 15.195312 336.933594 15.191406 C 335.394531 15.191406 334.144531 16.4375 334.144531 17.976562 " fill-opacity="1" fill-rule="nonzero"/><path fill="#d9c0ce" d="M 337.347656 14.953125 L 336.515625 14.953125 L 336.519531 12.027344 L 337.351562 12.027344 L 337.347656 14.953125 " fill-opacity="1" fill-rule="nonzero"/><path fill="#d9c0ce" d="M 337.339844 23.929688 L 336.507812 23.929688 L 336.511719 21 L 337.34375 21.003906 L 337.339844 23.929688 " fill-opacity="1" fill-rule="nonzero"/><path fill="#d9c0ce" d="M 335.78125 15.148438 L 335.058594 15.5625 L 333.597656 13.027344 L 334.316406 12.613281 L 335.78125 15.148438 " fill-opacity="1" fill-rule="nonzero"/><path fill="#d9c0ce" d="M 340.261719 22.925781 L 339.542969 23.339844 L 338.078125 20.804688 L 338.800781 20.390625 L 340.261719 22.925781 " fill-opacity="1" fill-rule="nonzero"/><path fill="#d9c0ce" d="M 334.519531 16.101562 L 334.101562 16.824219 L 331.570312 15.355469 L 331.988281 14.636719 L 334.519531 16.101562 " fill-opacity="1" fill-rule="nonzero"/><path fill="#d9c0ce" d="M 342.289062 20.597656 L 341.875 21.316406 L 339.339844 19.851562 L 339.757812 19.132812 L 342.289062 20.597656 " fill-opacity="1" fill-rule="nonzero"/><g clip-path="url(#b4371532d8)"><path fill="#d9c0ce" d="M 333.90625 17.558594 L 333.90625 18.390625 L 330.976562 18.386719 L 330.980469 17.558594 L 333.90625 17.558594 " fill-opacity="1" fill-rule="nonzero"/></g><path fill="#d9c0ce" d="M 342.882812 17.566406 L 342.878906 18.398438 L 339.953125 18.394531 L 339.957031 17.5625 L 342.882812 17.566406 " fill-opacity="1" fill-rule="nonzero"/><path fill="#d9c0ce" d="M 334.101562 19.128906 L 334.515625 19.847656 L 331.980469 21.308594 L 331.566406 20.589844 L 334.101562 19.128906 " fill-opacity="1" fill-rule="nonzero"/><path fill="#d9c0ce" d="M 341.878906 14.644531 L 342.292969 15.367188 L 339.757812 16.828125 L 339.34375 16.105469 L 341.878906 14.644531 " fill-opacity="1" fill-rule="nonzero"/><path fill="#d9c0ce" d="M 335.054688 20.386719 L 335.773438 20.804688 L 334.308594 23.335938 L 333.589844 22.921875 L 335.054688 20.386719 " fill-opacity="1" fill-rule="nonzero"/><path fill="#d9c0ce" d="M 339.550781 12.617188 L 340.269531 13.035156 L 338.804688 15.566406 L 338.085938 15.152344 L 339.550781 12.617188 " fill-opacity="1" fill-rule="nonzero"/><g clip-path="url(#379d33df39)"><path fill="#d9c0ce" d="M 347.867188 46.914062 C 344.847656 46.914062 342.390625 44.457031 342.390625 41.4375 C 342.390625 40.40625 342.679688 39.402344 343.226562 38.53125 C 343.683594 37.796875 344.324219 37.175781 345.070312 36.730469 L 345.207031 36.644531 L 345.207031 12.390625 C 345.207031 11.601562 345.484375 10.882812 345.988281 10.367188 C 346.476562 9.867188 347.148438 9.589844 347.867188 9.589844 C 348.589844 9.589844 349.257812 9.867188 349.75 10.367188 C 350.253906 10.882812 350.527344 11.601562 350.527344 12.390625 L 350.527344 36.644531 L 350.667969 36.730469 C 351.414062 37.171875 352.050781 37.796875 352.511719 38.53125 C 353.058594 39.402344 353.34375 40.40625 353.34375 41.4375 C 353.34375 44.457031 350.886719 46.914062 347.867188 46.914062 " fill-opacity="1" fill-rule="nonzero"/></g><g clip-path="url(#a55c516715)"><path fill="#d9c0ce" d="M 347.867188 47.308594 C 344.628906 47.308594 341.996094 44.675781 341.996094 41.4375 C 341.996094 40.332031 342.304688 39.253906 342.886719 38.324219 C 343.371094 37.550781 344.035156 36.894531 344.8125 36.421875 L 344.8125 12.390625 C 344.8125 11.496094 345.128906 10.679688 345.703125 10.089844 C 346.269531 9.511719 347.039062 9.191406 347.867188 9.191406 C 348.699219 9.191406 349.46875 9.511719 350.035156 10.089844 C 350.609375 10.679688 350.925781 11.496094 350.925781 12.390625 L 350.925781 36.421875 C 351.703125 36.894531 352.367188 37.550781 352.847656 38.320312 C 353.433594 39.253906 353.742188 40.332031 353.742188 41.4375 C 353.742188 44.675781 351.105469 47.308594 347.867188 47.308594 " fill-opacity="1" fill-rule="nonzero"/></g><g clip-path="url(#9ccf2c8136)"><path fill="#ffffff" d="M 347.867188 47.082031 C 344.757812 47.082031 342.222656 44.550781 342.222656 41.4375 C 342.222656 40.375 342.519531 39.339844 343.082031 38.441406 C 343.570312 37.664062 344.242188 37.011719 345.039062 36.550781 L 345.039062 12.390625 C 345.039062 11.554688 345.332031 10.796875 345.867188 10.25 C 346.390625 9.714844 347.101562 9.417969 347.867188 9.417969 C 348.636719 9.417969 349.347656 9.714844 349.871094 10.25 C 350.40625 10.796875 350.699219 11.554688 350.699219 12.390625 L 350.699219 36.550781 C 351.492188 37.011719 352.167969 37.664062 352.65625 38.441406 C 353.21875 39.339844 353.515625 40.375 353.515625 41.4375 C 353.515625 44.550781 350.980469 47.082031 347.867188 47.082031 " fill-opacity="1" fill-rule="nonzero"/></g><g clip-path="url(#c45c418aa9)"><path fill="#a56b8a" d="M 353.289062 41.4375 C 353.289062 44.425781 350.855469 46.855469 347.867188 46.855469 C 344.878906 46.855469 342.449219 44.425781 342.449219 41.4375 C 342.449219 40.417969 342.734375 39.421875 343.273438 38.5625 C 343.765625 37.777344 344.453125 37.128906 345.265625 36.683594 L 345.265625 12.390625 C 345.265625 11.617188 345.535156 10.910156 346.027344 10.40625 C 346.507812 9.917969 347.160156 9.648438 347.867188 9.648438 C 348.578125 9.648438 349.230469 9.917969 349.710938 10.40625 C 350.199219 10.910156 350.472656 11.617188 350.472656 12.390625 L 350.472656 36.683594 C 351.285156 37.128906 351.972656 37.777344 352.464844 38.5625 C 353.003906 39.421875 353.289062 40.417969 353.289062 41.4375 " fill-opacity="1" fill-rule="nonzero"/></g><g clip-path="url(#6c3b1a3295)"><path fill="#ffffff" d="M 347.867188 46.570312 C 345.039062 46.570312 342.734375 44.265625 342.734375 41.4375 C 342.734375 40.472656 343.007812 39.53125 343.515625 38.714844 C 343.980469 37.972656 344.632812 37.355469 345.402344 36.933594 L 345.550781 36.851562 L 345.550781 12.390625 C 345.550781 11.691406 345.792969 11.058594 346.234375 10.609375 C 346.660156 10.171875 347.238281 9.933594 347.867188 9.933594 C 348.5 9.933594 349.078125 10.171875 349.503906 10.609375 C 349.941406 11.058594 350.183594 11.691406 350.183594 12.390625 L 350.183594 36.851562 L 350.332031 36.933594 C 351.101562 37.355469 351.753906 37.972656 352.222656 38.714844 C 352.730469 39.53125 353 40.46875 353 41.4375 C 353 44.265625 350.699219 46.570312 347.867188 46.570312 " fill-opacity="1" fill-rule="nonzero"/></g><path fill="#a56b8a" d="M 348.921875 37.769531 L 348.921875 15.171875 L 346.816406 15.171875 L 346.816406 37.769531 C 345.195312 38.230469 344.007812 39.71875 344.007812 41.484375 C 344.007812 43.617188 345.738281 45.34375 347.867188 45.34375 C 350 45.34375 351.726562 43.617188 351.726562 41.484375 C 351.726562 39.71875 350.542969 38.230469 348.921875 37.769531 " fill-opacity="1" fill-rule="nonzero"/><path fill="#d9c0ce" d="M 347.867188 15.171875 L 346.816406 15.171875 L 346.816406 37.769531 C 345.179688 38.230469 343.992188 39.71875 343.992188 41.484375 C 343.992188 43.609375 345.726562 45.332031 347.867188 45.34375 L 347.867188 15.171875 " fill-opacity="1" fill-rule="nonzero"/><path fill="#d9c0ce" d="M 348.921875 28.707031 L 347.867188 28.707031 L 347.867188 15.171875 L 348.921875 15.171875 L 348.921875 28.707031 " fill-opacity="1" fill-rule="nonzero"/><path fill="#ffffff" d="M 348.320312 15.84375 L 347.453125 15.84375 L 347.457031 15.585938 L 348.320312 15.585938 L 348.320312 15.84375 " fill-opacity="1" fill-rule="nonzero"/><path fill="#ffffff" d="M 348.308594 21.265625 L 347.445312 21.265625 L 347.445312 21.007812 L 348.308594 21.011719 L 348.308594 21.265625 " fill-opacity="1" fill-rule="nonzero"/><path fill="#ffffff" d="M 348.300781 26.660156 L 347.4375 26.65625 L 347.4375 26.398438 L 348.300781 26.402344 L 348.300781 26.660156 " fill-opacity="1" fill-rule="nonzero"/><path fill="#ffffff" d="M 348.292969 31.886719 L 347.425781 31.886719 L 347.425781 31.628906 L 348.292969 31.628906 L 348.292969 31.886719 " fill-opacity="1" fill-rule="nonzero"/><path fill="#ffffff" d="M 348.28125 37.46875 L 347.417969 37.46875 L 347.417969 37.210938 L 348.28125 37.214844 L 348.28125 37.46875 " fill-opacity="1" fill-rule="nonzero"/><path fill="#ffffff" d="M 347.964844 16.800781 L 347.464844 16.796875 L 347.464844 16.601562 L 347.964844 16.601562 L 347.964844 16.800781 " fill-opacity="1" fill-rule="nonzero"/><path fill="#ffffff" d="M 347.960938 17.878906 L 347.464844 17.878906 L 347.464844 17.683594 L 347.964844 17.683594 L 347.960938 17.878906 " fill-opacity="1" fill-rule="nonzero"/><path fill="#ffffff" d="M 347.960938 18.960938 L 347.460938 18.960938 L 347.460938 18.761719 L 347.960938 18.765625 L 347.960938 18.960938 " fill-opacity="1" fill-rule="nonzero"/><path fill="#ffffff" d="M 347.957031 20.042969 L 347.460938 20.042969 L 347.460938 19.84375 L 347.960938 19.84375 L 347.957031 20.042969 " fill-opacity="1" fill-rule="nonzero"/><path fill="#ffffff" d="M 347.957031 22.207031 L 347.457031 22.203125 L 347.457031 22.007812 L 347.957031 22.007812 L 347.957031 22.207031 " fill-opacity="1" fill-rule="nonzero"/><path fill="#ffffff" d="M 347.953125 23.285156 L 347.453125 23.285156 L 347.453125 23.085938 L 347.953125 23.089844 L 347.953125 23.285156 " fill-opacity="1" fill-rule="nonzero"/><path fill="#ffffff" d="M 347.953125 24.367188 L 347.453125 24.367188 L 347.453125 24.167969 L 347.953125 24.167969 L 347.953125 24.367188 " fill-opacity="1" fill-rule="nonzero"/><path fill="#ffffff" d="M 347.949219 25.449219 L 347.449219 25.449219 L 347.449219 25.25 L 347.949219 25.25 L 347.949219 25.449219 " fill-opacity="1" fill-rule="nonzero"/><path fill="#ffffff" d="M 347.945312 27.6875 L 347.445312 27.6875 L 347.445312 27.488281 L 347.945312 27.492188 L 347.945312 27.6875 " fill-opacity="1" fill-rule="nonzero"/><path fill="#ffffff" d="M 347.945312 28.691406 L 347.445312 28.691406 L 347.445312 28.492188 L 347.945312 28.492188 L 347.945312 28.691406 " fill-opacity="1" fill-rule="nonzero"/><path fill="#ffffff" d="M 347.941406 29.773438 L 347.441406 29.773438 L 347.445312 29.574219 L 347.941406 29.574219 L 347.941406 29.773438 " fill-opacity="1" fill-rule="nonzero"/><path fill="#ffffff" d="M 347.941406 30.855469 L 347.441406 30.851562 L 347.441406 30.65625 L 347.941406 30.65625 L 347.941406 30.855469 " fill-opacity="1" fill-rule="nonzero"/><path fill="#ffffff" d="M 347.9375 32.847656 L 347.4375 32.847656 L 347.4375 32.652344 L 347.9375 32.652344 L 347.9375 32.847656 " fill-opacity="1" fill-rule="nonzero"/><path fill="#ffffff" d="M 347.933594 34.066406 L 347.4375 34.066406 L 347.4375 33.871094 L 347.933594 33.871094 L 347.933594 34.066406 " fill-opacity="1" fill-rule="nonzero"/><path fill="#ffffff" d="M 347.933594 35.164062 L 347.433594 35.164062 L 347.433594 34.964844 L 347.933594 34.964844 L 347.933594 35.164062 " fill-opacity="1" fill-rule="nonzero"/><path fill="#ffffff" d="M 347.929688 36.320312 L 347.433594 36.316406 L 347.433594 36.121094 L 347.929688 36.121094 L 347.929688 36.320312 " fill-opacity="1" fill-rule="nonzero"/><g clip-path="url(#75130224a8)"><path fill="#a56b8a" d="M 358.75 32.277344 C 358.449219 32.109375 358.34375 31.726562 358.511719 31.425781 C 358.679688 31.125 359.058594 31.019531 359.359375 31.1875 C 359.660156 31.355469 359.769531 31.734375 359.601562 32.035156 C 359.433594 32.335938 359.050781 32.445312 358.75 32.277344 Z M 362.21875 36.714844 L 361.574219 35.636719 L 362.300781 35.820312 C 362.40625 35.847656 362.511719 35.785156 362.535156 35.679688 C 362.5625 35.578125 362.5 35.472656 362.394531 35.445312 L 361.292969 35.167969 L 360.683594 34.144531 L 362.5625 34.617188 C 362.667969 34.644531 362.773438 34.582031 362.796875 34.476562 C 362.824219 34.375 362.761719 34.269531 362.65625 34.242188 L 360.402344 33.671875 L 359.703125 32.507812 C 359.796875 32.429688 359.878906 32.335938 359.9375 32.222656 C 359.988281 32.132812 360.023438 32.039062 360.042969 31.941406 L 361.449219 31.921875 L 363.050781 33.480469 C 363.0625 33.492188 363.078125 33.5 363.09375 33.507812 C 363.167969 33.550781 363.261719 33.539062 363.324219 33.476562 C 363.398438 33.398438 363.398438 33.277344 363.320312 33.203125 L 361.996094 31.914062 L 363.203125 31.898438 L 363.996094 32.667969 C 364.007812 32.679688 364.023438 32.6875 364.035156 32.695312 C 364.109375 32.738281 364.207031 32.726562 364.269531 32.664062 C 364.34375 32.585938 364.34375 32.464844 364.265625 32.390625 L 363.75 31.890625 L 364.957031 31.871094 C 365.066406 31.871094 365.152344 31.78125 365.148438 31.675781 C 365.148438 31.570312 365.058594 31.484375 364.953125 31.484375 L 363.699219 31.503906 L 364.222656 30.964844 C 364.296875 30.890625 364.292969 30.765625 364.21875 30.691406 C 364.140625 30.617188 364.019531 30.621094 363.945312 30.695312 L 363.152344 31.511719 L 361.957031 31.527344 L 363.308594 30.136719 C 363.382812 30.0625 363.382812 29.9375 363.304688 29.863281 C 363.230469 29.789062 363.105469 29.792969 363.03125 29.867188 L 361.410156 31.535156 L 360.050781 31.554688 C 360.011719 31.339844 359.902344 31.132812 359.734375 30.980469 L 360.417969 29.753906 L 362.566406 29.144531 C 362.671875 29.117188 362.730469 29.007812 362.699219 28.90625 C 362.671875 28.804688 362.566406 28.742188 362.460938 28.773438 L 360.683594 29.277344 L 361.273438 28.222656 L 362.335938 27.921875 C 362.4375 27.890625 362.5 27.785156 362.46875 27.683594 C 362.441406 27.578125 362.332031 27.519531 362.230469 27.550781 L 361.539062 27.746094 L 362.128906 26.691406 C 362.179688 26.597656 362.148438 26.480469 362.054688 26.425781 C 361.960938 26.375 361.84375 26.410156 361.792969 26.5 L 361.179688 27.597656 L 360.976562 26.875 C 360.945312 26.773438 360.839844 26.710938 360.738281 26.742188 C 360.632812 26.769531 360.574219 26.878906 360.601562 26.980469 L 360.914062 28.074219 L 360.332031 29.117188 L 359.800781 27.25 C 359.773438 27.148438 359.667969 27.085938 359.5625 27.117188 C 359.460938 27.144531 359.402344 27.253906 359.429688 27.355469 L 360.066406 29.59375 L 359.402344 30.78125 C 359.1875 30.703125 358.953125 30.703125 358.746094 30.769531 L 358.023438 29.5625 L 358.570312 27.398438 C 358.597656 27.292969 358.535156 27.1875 358.433594 27.160156 C 358.328125 27.136719 358.222656 27.199219 358.195312 27.300781 L 357.746094 29.09375 L 357.125 28.054688 L 357.394531 26.984375 C 357.421875 26.882812 357.359375 26.777344 357.257812 26.75 C 357.152344 26.722656 357.046875 26.785156 357.019531 26.890625 L 356.84375 27.585938 L 356.226562 26.546875 C 356.171875 26.457031 356.054688 26.425781 355.960938 26.480469 C 355.871094 26.535156 355.839844 26.65625 355.894531 26.746094 L 356.539062 27.824219 L 355.808594 27.640625 C 355.707031 27.613281 355.601562 27.675781 355.574219 27.78125 C 355.554688 27.867188 355.59375 27.957031 355.667969 27.996094 C 355.683594 28.003906 355.699219 28.011719 355.714844 28.015625 L 356.816406 28.292969 L 357.429688 29.320312 L 355.546875 28.84375 C 355.445312 28.816406 355.339844 28.878906 355.3125 28.984375 C 355.292969 29.070312 355.332031 29.160156 355.40625 29.199219 C 355.421875 29.207031 355.4375 29.214844 355.453125 29.21875 L 357.710938 29.789062 L 358.40625 30.957031 C 358.316406 31.03125 358.234375 31.128906 358.171875 31.238281 C 358.121094 31.328125 358.085938 31.421875 358.066406 31.519531 L 356.660156 31.539062 L 355.058594 29.984375 C 354.984375 29.910156 354.859375 29.910156 354.785156 29.988281 C 354.710938 30.0625 354.714844 30.1875 354.789062 30.261719 L 356.117188 31.546875 L 354.90625 31.566406 L 354.117188 30.796875 C 354.039062 30.722656 353.917969 30.722656 353.84375 30.800781 C 353.769531 30.875 353.769531 31 353.847656 31.074219 L 354.359375 31.574219 L 353.152344 31.589844 C 353.046875 31.589844 352.960938 31.679688 352.960938 31.785156 C 352.964844 31.859375 353.003906 31.917969 353.0625 31.953125 C 353.089844 31.96875 353.125 31.976562 353.160156 31.976562 L 354.414062 31.957031 L 353.890625 32.496094 C 353.816406 32.574219 353.816406 32.695312 353.894531 32.769531 C 353.90625 32.78125 353.921875 32.792969 353.933594 32.800781 C 354.011719 32.84375 354.105469 32.832031 354.167969 32.765625 L 354.960938 31.949219 L 356.15625 31.933594 L 354.800781 33.324219 C 354.726562 33.402344 354.730469 33.523438 354.804688 33.597656 C 354.816406 33.609375 354.832031 33.621094 354.847656 33.628906 C 354.921875 33.671875 355.015625 33.660156 355.078125 33.59375 L 356.699219 31.925781 L 358.058594 31.90625 C 358.097656 32.125 358.207031 32.328125 358.378906 32.480469 L 357.691406 33.707031 L 355.542969 34.316406 C 355.441406 34.347656 355.382812 34.453125 355.410156 34.554688 C 355.441406 34.660156 355.546875 34.71875 355.648438 34.691406 L 357.425781 34.1875 L 356.835938 35.242188 L 355.777344 35.542969 C 355.671875 35.570312 355.613281 35.679688 355.640625 35.78125 C 355.65625 35.832031 355.691406 35.871094 355.734375 35.894531 C 355.777344 35.921875 355.828125 35.929688 355.882812 35.914062 L 356.570312 35.71875 L 355.980469 36.773438 C 355.929688 36.867188 355.964844 36.984375 356.058594 37.035156 C 356.148438 37.085938 356.269531 37.054688 356.320312 36.960938 L 356.933594 35.863281 L 357.136719 36.585938 C 357.164062 36.691406 357.273438 36.75 357.375 36.71875 C 357.476562 36.691406 357.539062 36.585938 357.507812 36.480469 L 357.199219 35.386719 L 357.78125 34.34375 L 358.308594 36.210938 C 358.324219 36.261719 358.359375 36.304688 358.402344 36.328125 C 358.445312 36.351562 358.496094 36.359375 358.546875 36.34375 C 358.652344 36.316406 358.710938 36.210938 358.679688 36.105469 L 358.046875 33.867188 L 358.710938 32.679688 C 358.925781 32.761719 359.15625 32.761719 359.367188 32.691406 L 360.085938 33.898438 L 359.539062 36.066406 C 359.519531 36.152344 359.558594 36.242188 359.632812 36.28125 C 359.648438 36.289062 359.664062 36.296875 359.679688 36.300781 C 359.78125 36.328125 359.886719 36.265625 359.914062 36.160156 L 360.367188 34.371094 L 360.984375 35.40625 L 360.714844 36.476562 C 360.695312 36.5625 360.734375 36.652344 360.808594 36.695312 C 360.824219 36.703125 360.839844 36.707031 360.855469 36.710938 C 360.960938 36.738281 361.0625 36.675781 361.089844 36.570312 L 361.265625 35.875 L 361.886719 36.914062 C 361.902344 36.945312 361.929688 36.96875 361.957031 36.984375 C 362.015625 37.015625 362.089844 37.015625 362.148438 36.980469 C 362.242188 36.925781 362.269531 36.808594 362.21875 36.714844 " fill-opacity="1" fill-rule="nonzero"/></g><path fill="#a56b8a" d="M 358.613281 29.621094 L 358.878906 30.078125 C 358.894531 30.109375 358.921875 30.132812 358.949219 30.148438 C 358.980469 30.164062 359.011719 30.171875 359.046875 30.171875 C 359.117188 30.171875 359.179688 30.132812 359.214844 30.074219 L 359.492188 29.566406 C 359.515625 29.523438 359.523438 29.46875 359.507812 29.421875 L 359.238281 28.503906 C 359.214844 28.421875 359.140625 28.363281 359.054688 28.367188 C 358.96875 28.367188 358.890625 28.421875 358.867188 28.503906 L 358.59375 29.472656 C 358.582031 29.523438 358.585938 29.574219 358.613281 29.621094 " fill-opacity="1" fill-rule="nonzero"/><path fill="#a56b8a" d="M 356.867188 31 C 356.882812 31.011719 356.898438 31.023438 356.914062 31.035156 C 356.941406 31.050781 356.972656 31.058594 357.007812 31.058594 L 357.535156 31.058594 C 357.605469 31.058594 357.667969 31.019531 357.703125 30.960938 C 357.738281 30.898438 357.734375 30.824219 357.699219 30.765625 L 357.398438 30.273438 C 357.375 30.226562 357.332031 30.195312 357.28125 30.183594 L 356.355469 29.957031 C 356.269531 29.9375 356.183594 29.976562 356.140625 30.050781 C 356.097656 30.125 356.109375 30.21875 356.167969 30.28125 L 356.867188 31 " fill-opacity="1" fill-rule="nonzero"/><path fill="#a56b8a" d="M 356.140625 33.414062 C 356.160156 33.445312 356.183594 33.472656 356.214844 33.488281 C 356.257812 33.511719 356.308594 33.519531 356.355469 33.503906 L 357.328125 33.261719 C 357.378906 33.246094 357.421875 33.214844 357.449219 33.167969 L 357.710938 32.710938 C 357.746094 32.652344 357.746094 32.578125 357.710938 32.515625 C 357.675781 32.457031 357.609375 32.421875 357.539062 32.421875 L 356.964844 32.433594 C 356.914062 32.4375 356.863281 32.457031 356.828125 32.496094 L 356.167969 33.183594 C 356.109375 33.246094 356.097656 33.339844 356.140625 33.414062 " fill-opacity="1" fill-rule="nonzero"/><path fill="#a56b8a" d="M 359.496094 33.839844 L 359.234375 33.386719 C 359.199219 33.324219 359.132812 33.289062 359.0625 33.289062 C 358.992188 33.289062 358.929688 33.328125 358.898438 33.390625 L 358.621094 33.894531 C 358.59375 33.941406 358.589844 33.992188 358.605469 34.042969 L 358.871094 34.957031 C 358.886719 35.007812 358.917969 35.046875 358.960938 35.074219 C 358.992188 35.089844 359.023438 35.097656 359.058594 35.097656 C 359.144531 35.097656 359.21875 35.039062 359.242188 34.957031 L 359.515625 33.992188 C 359.53125 33.941406 359.523438 33.886719 359.496094 33.839844 " fill-opacity="1" fill-rule="nonzero"/><path fill="#a56b8a" d="M 361.242188 32.460938 C 361.207031 32.425781 361.15625 32.402344 361.105469 32.402344 L 360.578125 32.40625 C 360.507812 32.40625 360.441406 32.441406 360.410156 32.503906 C 360.375 32.5625 360.375 32.640625 360.414062 32.699219 L 360.710938 33.191406 C 360.730469 33.21875 360.753906 33.242188 360.78125 33.257812 C 360.796875 33.265625 360.8125 33.273438 360.832031 33.277344 L 361.757812 33.503906 C 361.84375 33.523438 361.929688 33.488281 361.972656 33.414062 C 362.015625 33.339844 362.003906 33.242188 361.941406 33.183594 L 361.242188 32.460938 " fill-opacity="1" fill-rule="nonzero"/><path fill="#a56b8a" d="M 361.96875 30.046875 C 361.925781 29.972656 361.839844 29.933594 361.753906 29.957031 L 360.78125 30.203125 C 360.730469 30.214844 360.6875 30.246094 360.664062 30.292969 L 360.398438 30.75 C 360.363281 30.8125 360.367188 30.886719 360.402344 30.945312 C 360.417969 30.976562 360.445312 31 360.472656 31.015625 C 360.503906 31.03125 360.535156 31.039062 360.570312 31.039062 L 361.148438 31.027344 C 361.199219 31.027344 361.246094 31.003906 361.28125 30.96875 L 361.941406 30.277344 C 362.003906 30.214844 362.011719 30.121094 361.96875 30.046875 " fill-opacity="1" fill-rule="nonzero"/></svg>