<svg xmlns="http://www.w3.org/2000/svg" xmlns:xlink="http://www.w3.org/1999/xlink" width="499" zoomAndPan="magnify" viewBox="0 0 374.25 225" height="300" preserveAspectRatio="xMidYMid meet" version="1.0"><defs><clipPath id="700d56058a"><path d="M 0 0.226562 L 373.5 0.226562 L 373.5 224.773438 L 0 224.773438 Z M 0 0.226562 " clip-rule="nonzero"/></clipPath><clipPath id="88980393c0"><path d="M 334 8.035156 L 365.804688 8.035156 L 365.804688 27 L 334 27 Z M 334 8.035156 " clip-rule="nonzero"/></clipPath><clipPath id="58ad4dcf9f"><path d="M 321.644531 15 L 341 15 L 341 22 L 321.644531 22 Z M 321.644531 15 " clip-rule="nonzero"/></clipPath><clipPath id="8dec4c7947"><path d="M 323 25 L 343 25 L 343 31.238281 L 323 31.238281 Z M 323 25 " clip-rule="nonzero"/></clipPath></defs><g clip-path="url(#700d56058a)"><path fill="#ffffff" d="M 0 0.226562 L 373.5 0.226562 L 373.5 224.773438 L 0 224.773438 Z M 0 0.226562 " fill-opacity="1" fill-rule="nonzero"/><path fill="#ffffff" d="M 0 0.226562 L 373.5 0.226562 L 373.5 224.773438 L 0 224.773438 Z M 0 0.226562 " fill-opacity="1" fill-rule="nonzero"/></g><g clip-path="url(#88980393c0)"><path fill="#ac899c" d="M 346.207031 8.046875 C 345.75 8.046875 345.296875 8.089844 344.851562 8.179688 C 344.402344 8.269531 343.96875 8.398438 343.546875 8.574219 C 343.125 8.75 342.722656 8.964844 342.34375 9.21875 C 341.964844 9.472656 341.613281 9.757812 341.289062 10.082031 C 340.964844 10.40625 340.679688 10.757812 340.425781 11.136719 C 340.171875 11.515625 339.957031 11.917969 339.78125 12.339844 C 339.605469 12.761719 339.476562 13.195312 339.386719 13.644531 C 339.296875 14.089844 339.253906 14.542969 339.253906 15 C 339.253906 15.257812 339.269531 15.515625 339.300781 15.769531 C 336.675781 16.242188 334.707031 18.359375 334.707031 20.917969 C 334.707031 23.824219 337.25 26.164062 340.402344 26.164062 L 360.726562 26.164062 C 363.632812 26.164062 365.972656 23.988281 365.972656 21.289062 C 365.972656 18.601562 363.660156 16.441406 360.78125 16.414062 C 360.734375 16.050781 360.65625 15.699219 360.546875 15.351562 C 360.4375 15.003906 360.296875 14.671875 360.125 14.351562 C 359.957031 14.03125 359.757812 13.726562 359.535156 13.441406 C 359.308594 13.15625 359.058594 12.890625 358.785156 12.652344 C 358.515625 12.410156 358.222656 12.199219 357.910156 12.011719 C 357.597656 11.824219 357.273438 11.664062 356.933594 11.535156 C 356.59375 11.40625 356.242188 11.3125 355.886719 11.246094 C 355.527344 11.179688 355.167969 11.148438 354.804688 11.148438 C 353.9375 11.148438 353.109375 11.328125 352.320312 11.6875 C 352.023438 11.136719 351.65625 10.636719 351.222656 10.183594 C 350.789062 9.730469 350.304688 9.34375 349.765625 9.023438 C 349.226562 8.703125 348.65625 8.460938 348.050781 8.292969 C 347.449219 8.128906 346.832031 8.046875 346.207031 8.046875 Z M 346.207031 8.046875 " fill-opacity="1" fill-rule="nonzero"/></g><path fill="#d9c0ce" d="M 338.644531 10.664062 C 338.1875 10.664062 337.738281 10.707031 337.289062 10.796875 C 336.839844 10.886719 336.40625 11.015625 335.984375 11.191406 C 335.5625 11.367188 335.160156 11.582031 334.78125 11.835938 C 334.402344 12.089844 334.050781 12.378906 333.726562 12.699219 C 333.40625 13.023438 333.117188 13.375 332.863281 13.753906 C 332.609375 14.132812 332.394531 14.535156 332.21875 14.957031 C 332.046875 15.378906 331.914062 15.8125 331.824219 16.261719 C 331.734375 16.707031 331.691406 17.160156 331.691406 17.617188 C 331.691406 17.875 331.707031 18.132812 331.738281 18.386719 C 329.117188 18.859375 327.148438 20.976562 327.148438 23.535156 C 327.148438 26.441406 329.6875 28.78125 332.84375 28.78125 L 353.164062 28.78125 C 356.070312 28.78125 358.410156 26.605469 358.410156 23.90625 C 358.410156 21.21875 356.097656 19.058594 353.21875 19.03125 C 353.171875 18.667969 353.09375 18.316406 352.984375 17.96875 C 352.875 17.625 352.734375 17.289062 352.566406 16.96875 C 352.394531 16.648438 352.199219 16.34375 351.972656 16.058594 C 351.746094 15.773438 351.5 15.507812 351.226562 15.269531 C 350.953125 15.027344 350.660156 14.816406 350.347656 14.628906 C 350.039062 14.441406 349.710938 14.28125 349.371094 14.152344 C 349.03125 14.023438 348.683594 13.929688 348.324219 13.863281 C 347.96875 13.796875 347.605469 13.765625 347.242188 13.765625 C 346.378906 13.765625 345.550781 13.945312 344.761719 14.304688 C 344.460938 13.753906 344.097656 13.253906 343.664062 12.800781 C 343.230469 12.347656 342.742188 11.960938 342.203125 11.640625 C 341.667969 11.320312 341.09375 11.078125 340.492188 10.914062 C 339.886719 10.746094 339.273438 10.664062 338.644531 10.664062 Z M 338.644531 10.664062 " fill-opacity="1" fill-rule="nonzero"/><g clip-path="url(#58ad4dcf9f)"><path fill="#a56b8a" d="M 336.726562 15.375 C 334.914062 15.375 333.429688 16.84375 333.429688 18.648438 C 333.429688 18.796875 333.484375 18.925781 333.589844 19.03125 C 333.695312 19.140625 333.824219 19.191406 333.976562 19.191406 C 334.125 19.191406 334.253906 19.140625 334.359375 19.03125 C 334.46875 18.925781 334.519531 18.796875 334.519531 18.648438 C 334.519531 17.4375 335.5 16.464844 336.726562 16.464844 C 337.953125 16.464844 338.929688 17.4375 338.929688 18.648438 C 338.929688 19.855469 337.953125 20.828125 336.726562 20.828125 L 322.34375 20.828125 C 322.195312 20.828125 322.066406 20.882812 321.960938 20.988281 C 321.851562 21.09375 321.800781 21.222656 321.800781 21.375 C 321.800781 21.523438 321.851562 21.652344 321.960938 21.757812 C 322.066406 21.867188 322.195312 21.917969 322.34375 21.917969 L 336.726562 21.917969 C 338.535156 21.917969 340.019531 20.449219 340.019531 18.648438 C 340.019531 16.84375 338.535156 15.375 336.726562 15.375 Z M 336.726562 15.375 " fill-opacity="1" fill-rule="nonzero"/></g><path fill="#a56b8a" d="M 343.417969 18.574219 C 341.875 18.574219 340.585938 19.785156 340.585938 21.300781 C 340.585938 21.449219 340.640625 21.578125 340.746094 21.6875 C 340.851562 21.792969 340.980469 21.847656 341.132812 21.847656 C 341.28125 21.847656 341.410156 21.792969 341.515625 21.6875 C 341.625 21.578125 341.675781 21.449219 341.675781 21.300781 C 341.675781 20.40625 342.4375 19.664062 343.417969 19.664062 C 344.398438 19.664062 345.15625 20.40625 345.15625 21.300781 C 345.15625 22.195312 344.398438 22.9375 343.417969 22.9375 L 325.253906 22.9375 C 325.101562 22.9375 324.972656 22.988281 324.867188 23.097656 C 324.761719 23.203125 324.707031 23.332031 324.707031 23.480469 C 324.707031 23.632812 324.761719 23.761719 324.867188 23.867188 C 324.972656 23.972656 325.101562 24.027344 325.253906 24.027344 L 343.417969 24.027344 C 344.960938 24.027344 346.25 22.8125 346.25 21.300781 C 346.25 19.785156 344.960938 18.574219 343.417969 18.574219 Z M 343.417969 18.574219 " fill-opacity="1" fill-rule="nonzero"/><g clip-path="url(#8dec4c7947)"><path fill="#a56b8a" d="M 323.945312 25.046875 C 323.792969 25.046875 323.664062 25.097656 323.558594 25.203125 C 323.453125 25.3125 323.398438 25.441406 323.398438 25.589844 C 323.398438 25.742188 323.453125 25.871094 323.558594 25.976562 C 323.664062 26.082031 323.792969 26.136719 323.945312 26.136719 L 339.078125 26.136719 C 340.230469 26.136719 341.140625 27.035156 341.140625 28.144531 C 341.140625 29.253906 340.230469 30.152344 339.078125 30.152344 C 337.929688 30.152344 337.019531 29.253906 337.019531 28.144531 C 337.019531 27.992188 336.96875 27.867188 336.863281 27.757812 C 336.753906 27.652344 336.625 27.597656 336.476562 27.597656 C 336.324219 27.597656 336.195312 27.652344 336.089844 27.757812 C 335.984375 27.867188 335.929688 27.992188 335.929688 28.144531 C 335.929688 29.855469 337.351562 31.246094 339.078125 31.246094 C 340.808594 31.246094 342.230469 29.855469 342.230469 28.144531 C 342.230469 26.433594 340.808594 25.046875 339.078125 25.046875 Z M 323.945312 25.046875 " fill-opacity="1" fill-rule="nonzero"/></g></svg>